<?xml version="1.0" encoding="UTF-8" standalone="no"?>
<!DOCTYPE svg PUBLIC "-//W3C//DTD SVG 1.1//EN" "http://www.w3.org/Graphics/SVG/1.1/DTD/svg11.dtd">
<svg width="100%" height="100%" viewBox="0 0 1400 270" version="1.1" xmlns="http://www.w3.org/2000/svg" xmlns:xlink="http://www.w3.org/1999/xlink" xml:space="preserve" xmlns:serif="http://www.serif.com/" style="fill-rule:evenodd;clip-rule:evenodd;stroke-linejoin:round;stroke-miterlimit:2;">
    <g transform="matrix(1.7861,0,0,1.7861,-6.84529,-225.583)">
        <g transform="matrix(1,0,0,1,0,-25.742)">
            <rect x="8.182" y="203.5" width="163.511" height="32.312" style="fill:white;"/>
        </g>
        <g transform="matrix(-1,0,0,1,791.496,133.764)">
            <rect x="6.272" y="138.903" width="778.952" height="2" style="fill:rgb(255,196,36);"/>
        </g>
        <g transform="matrix(1,0,0,1,219.564,191.902)">
            <path d="M0,34.851C0.698,37.392 1.034,39.214 1.034,40.405C1.034,41.283 0.786,42.026 0.294,42.63C-0.202,43.237 -1.146,43.597 -2.563,43.689L-2.563,44.836L11.063,44.836L11.063,43.689C9.6,43.576 8.476,42.969 7.667,41.868C6.86,40.764 5.959,38.404 4.969,34.717L-7.194,-9.985L-7.531,-9.985L-21.361,34.221C-22.463,38.203 -23.429,40.833 -24.33,42.114C-24.777,42.767 -25.744,43.307 -27.228,43.689L-27.228,44.836L-16.908,44.836L-16.908,43.689C-18.616,43.532 -19.74,43.103 -20.258,42.473C-20.777,41.823 -21.022,41.103 -21.022,40.247C-21.022,39.193 -20.754,37.617 -20.146,35.482L-17.74,27.699L-1.933,27.699L0,34.851ZM-17.022,25.429L-9.308,0.494L-2.517,25.429L-17.022,25.429Z" style="fill:white;"/>
        </g>
        <g transform="matrix(1,0,0,1,251,198.917)">
            <path d="M0,32.243C-0.698,33.481 -1.462,34.355 -2.316,34.83C-3.149,35.3 -4.589,35.551 -6.634,35.551L-8.612,35.551C-10.366,35.551 -11.401,35.435 -11.717,35.212C-12.053,35.011 -12.301,34.65 -12.459,34.176C-12.662,33.504 -12.771,32.265 -12.771,30.444L-12.771,2.429C-12.771,-0.022 -12.662,-1.575 -12.459,-2.227C-12.233,-2.855 -11.851,-3.395 -11.265,-3.823C-10.68,-4.252 -9.67,-4.453 -8.208,-4.431L-8.208,-5.578L-20.755,-5.578L-20.755,-4.431L-19.563,-4.431C-18.37,-4.431 -17.472,-3.936 -16.864,-2.947C-16.438,-2.227 -16.19,-0.426 -16.19,2.429L-16.19,29.837C-16.19,32.444 -16.37,34.088 -16.706,34.807C-17.268,36.066 -18.237,36.674 -19.563,36.674L-20.755,36.674L-20.755,37.821L0.922,37.821L3.215,26.622L2.068,26.397C1.37,29.073 0.674,31.007 0,32.243" style="fill:white;"/>
        </g>
        <g transform="matrix(1,0,0,1,254.215,236.738)">
            <path d="M0,-43.399L0,-33.707L1.124,-33.707C1.214,-35.641 1.528,-37.193 2.068,-38.339C2.586,-39.485 3.192,-40.25 3.957,-40.653C4.519,-40.948 5.463,-41.105 6.789,-41.105L10.254,-41.105L10.254,-7.984C10.254,-5.354 10.074,-3.667 9.736,-2.947C9.174,-1.733 8.186,-1.148 6.835,-1.148L5.687,-1.148L5.687,0L18.258,0L18.258,-1.148L17.133,-1.148C15.851,-1.148 14.931,-1.621 14.323,-2.587C13.895,-3.308 13.692,-5.106 13.692,-7.984L13.692,-41.105L17.65,-41.105C18.82,-41.105 19.764,-40.812 20.482,-40.228C21.203,-39.643 21.765,-38.744 22.192,-37.528C22.441,-36.766 22.665,-35.482 22.823,-33.707L23.947,-33.707L23.947,-43.399L0,-43.399Z" style="fill:white;"/>
        </g>
        <g transform="matrix(1,0,0,1,285.176,232.172)">
            <path d="M0,-34.267C-3.147,-29.861 -4.721,-24.217 -4.721,-17.292C-4.721,-10.499 -3.373,-4.968 -0.628,-0.696C2.092,3.6 5.465,5.712 9.468,5.712C13.425,5.712 16.82,3.53 19.608,-0.854C22.397,-5.239 23.811,-10.748 23.811,-17.38C23.811,-23.814 22.419,-29.184 19.652,-33.501C16.863,-37.82 13.604,-39.979 9.828,-39.979C6.003,-39.979 2.722,-38.068 0,-34.267M16.191,-33.299C18.236,-29.612 19.248,-24.038 19.248,-16.549C19.248,-9.623 18.326,-4.586 16.459,-1.372C14.615,1.843 12.278,3.419 9.446,3.419C6.768,3.419 4.633,1.957 3.012,-0.968C0.9,-4.81 -0.156,-10.322 -0.156,-17.451C-0.156,-24.42 0.856,-29.703 2.902,-33.323C4.542,-36.224 6.701,-37.686 9.4,-37.686C12.301,-37.686 14.549,-36.224 16.191,-33.299" style="fill:white;"/>
        </g>
        <g transform="matrix(1,0,0,1,328.394,237.885)">
            <path d="M0,-45.692C-0.158,-44.747 -0.338,-44.142 -0.563,-43.847C-0.786,-43.532 -1.08,-43.399 -1.441,-43.399C-1.755,-43.399 -2.316,-43.623 -3.059,-44.142C-4.721,-45.173 -6.298,-45.692 -7.782,-45.692C-10.163,-45.692 -12.143,-44.567 -13.693,-42.318C-15.222,-40.07 -15.987,-37.372 -15.987,-34.269C-15.987,-32.468 -15.717,-30.828 -15.156,-29.345C-14.572,-27.839 -13.761,-26.489 -12.662,-25.253C-11.581,-23.992 -9.736,-22.35 -7.083,-20.281C-4.475,-18.214 -2.879,-16.864 -2.339,-16.212C-1.552,-15.223 -0.966,-14.168 -0.584,-13.044C-0.202,-11.895 0,-10.772 0,-9.671C0,-7.668 -0.54,-5.939 -1.621,-4.476C-2.677,-3.014 -4.137,-2.294 -5.959,-2.294C-7.556,-2.294 -9.016,-2.813 -10.32,-3.845C-11.671,-4.88 -12.662,-6.184 -13.311,-7.734C-13.941,-9.312 -14.458,-11.669 -14.84,-14.84L-15.987,-14.84L-15.987,0L-14.84,0C-14.752,-0.923 -14.616,-1.529 -14.392,-1.845C-14.189,-2.112 -13.895,-2.294 -13.535,-2.294C-13.177,-2.294 -12.279,-1.957 -10.882,-1.326C-9.491,-0.722 -8.59,-0.383 -8.118,-0.271C-7.397,-0.091 -6.612,0 -5.757,0C-3.081,0 -0.856,-1.193 0.854,-3.575C2.563,-5.982 3.417,-8.859 3.417,-12.165C3.417,-13.897 3.171,-15.56 2.674,-17.159C2.158,-18.754 1.484,-20.126 0.562,-21.318C-0.36,-22.486 -2.227,-24.173 -5.037,-26.399C-8.5,-29.095 -10.681,-31.277 -11.603,-32.921C-12.233,-34.023 -12.569,-35.257 -12.569,-36.629C-12.569,-38.362 -12.099,-39.934 -11.177,-41.33C-10.254,-42.701 -9.084,-43.399 -7.667,-43.399C-6.408,-43.399 -5.217,-42.88 -4.049,-41.893C-2.855,-40.856 -1.981,-39.485 -1.326,-37.777C-0.698,-36.045 -0.249,-33.729 0,-30.828L1.124,-30.828L1.124,-45.692L0,-45.692Z" style="fill:white;"/>
        </g>
        <g transform="matrix(1,0,0,1,353.487,227.608)">
            <path d="M0,-35.415C0,-38.022 0.088,-39.754 0.291,-40.61C0.47,-41.439 0.808,-42.07 1.283,-42.498C1.977,-43.104 2.675,-43.396 3.439,-43.396L4.563,-43.396L4.563,-44.545L-9.13,-44.545L-9.13,-43.396L-8.006,-43.396C-7.242,-43.396 -6.521,-43.082 -5.823,-42.452C-5.353,-42.002 -5.015,-41.417 -4.856,-40.788C-4.655,-39.912 -4.565,-38.11 -4.565,-35.415L-4.565,-0C-4.565,3.213 -4.745,5.216 -5.126,6.071C-5.735,7.351 -6.679,7.983 -8.006,7.983L-9.13,7.983L-9.13,9.13L4.563,9.13L4.563,7.983L3.439,7.983C2.675,7.983 1.977,7.689 1.283,7.04C0.787,6.587 0.449,6.003 0.314,5.353C0.088,4.497 0,2.721 0,-0L0,-17.131L18.256,-17.131L18.256,-0C18.256,3.213 18.076,5.216 17.672,6.071C17.066,7.351 16.122,7.983 14.817,7.983L13.693,7.983L13.693,9.13L27.387,9.13L27.387,7.983L26.285,7.983C25.498,7.983 24.778,7.689 24.104,7.04C23.609,6.587 23.272,6.003 23.135,5.353C22.911,4.497 22.821,2.721 22.821,-0L22.821,-35.415C22.821,-38.022 22.911,-39.754 23.091,-40.61C23.272,-41.439 23.609,-42.07 24.126,-42.498C24.8,-43.104 25.498,-43.396 26.285,-43.396L27.387,-43.396L27.387,-44.545L13.693,-44.545L13.693,-43.396L14.817,-43.396C15.582,-43.396 16.28,-43.082 16.976,-42.452C17.47,-42.002 17.808,-41.417 17.967,-40.788C18.168,-39.912 18.256,-38.11 18.256,-35.415L18.256,-19.427L0,-19.427L0,-35.415Z" style="fill:white;"/>
        </g>
        <g transform="matrix(1,0,0,1,389.035,232.172)">
            <path d="M0,-34.267C-3.146,-29.861 -4.723,-24.217 -4.723,-17.292C-4.723,-10.499 -3.373,-4.968 -0.652,-0.696C2.093,3.6 5.465,5.712 9.467,5.712C13.423,5.712 16.818,3.53 19.606,-0.854C22.396,-5.239 23.812,-10.748 23.812,-17.38C23.812,-23.814 22.417,-29.184 19.652,-33.501C16.864,-37.82 13.603,-39.979 9.826,-39.979C6.003,-39.979 2.721,-38.068 0,-34.267M16.189,-33.299C18.215,-29.612 19.246,-24.038 19.246,-16.549C19.246,-9.623 18.303,-4.586 16.458,-1.372C14.594,1.843 12.276,3.419 9.422,3.419C6.746,3.419 4.609,1.957 3.013,-0.968C0.898,-4.81 -0.156,-10.322 -0.156,-17.451C-0.156,-24.42 0.854,-29.703 2.878,-33.323C4.521,-36.224 6.678,-37.686 9.4,-37.686C12.276,-37.686 14.548,-36.224 16.189,-33.299" style="fill:white;"/>
        </g>
        <g transform="matrix(1,0,0,1,443.09,194.487)">
            <path d="M0,41.104C-1.551,40.855 -2.833,40.27 -3.799,39.347C-4.789,38.428 -5.938,36.538 -7.308,33.727L-13.649,20.259C-11.152,19.494 -9.311,18.167 -8.094,16.279C-6.882,14.39 -6.273,12.164 -6.273,9.602C-6.273,7.219 -6.79,5.128 -7.826,3.396C-8.858,1.663 -10.119,0.473 -11.581,-0.157C-13.065,-0.808 -15.336,-1.147 -18.438,-1.147L-29.119,-1.147L-29.119,-0.001L-27.904,-0.001C-26.712,-0.001 -25.814,0.495 -25.206,1.483C-24.777,2.203 -24.554,3.98 -24.554,6.859L-24.554,34.267C-24.554,36.875 -24.733,38.518 -25.051,39.214C-25.612,40.497 -26.578,41.104 -27.904,41.104L-29.119,41.104L-29.119,42.251L-16.548,42.251L-16.548,41.104L-17.809,41.104C-18.977,41.104 -19.877,40.63 -20.461,39.642C-20.911,38.944 -21.115,37.146 -21.115,34.267L-21.115,21.698C-20.865,21.72 -20.619,21.743 -20.373,21.743L-19.719,21.743C-19.202,21.743 -18.528,21.743 -17.719,21.698L-7.805,42.251L0,42.251L0,41.104ZM-21.115,2.272C-19.609,1.529 -18.414,1.147 -17.517,1.147C-15.516,1.147 -13.874,1.98 -12.613,3.644C-11.354,5.309 -10.771,7.464 -10.839,10.095C-10.839,12.84 -11.625,15.088 -13.109,16.819C-14.638,18.574 -16.886,19.449 -19.833,19.449C-19.991,19.449 -20.147,19.449 -20.373,19.427C-20.597,19.427 -20.843,19.406 -21.115,19.406L-21.115,2.272Z" style="fill:white;"/>
        </g>
        <g transform="matrix(1,0,0,1,441.425,236.287)">
            <path d="M0,-41.802C0.832,-41.802 1.44,-41.688 1.845,-41.508C2.699,-41.082 3.329,-40.654 3.755,-40.181C4.184,-39.687 4.813,-38.719 5.644,-37.235L5.644,-7.534C5.644,-4.903 5.464,-3.217 5.127,-2.497C4.565,-1.283 3.575,-0.697 2.205,-0.697L1.081,-0.697L1.081,0.45L12.503,0.45L12.503,-0.697L11.356,-0.697C10.118,-0.697 9.175,-1.171 8.568,-2.136C8.14,-2.857 7.938,-4.655 7.938,-7.534L7.938,-32.988L26.398,1.146L27.343,1.146L27.343,-34.942C27.343,-37.573 27.501,-39.259 27.86,-40.002C28.423,-41.194 29.389,-41.802 30.76,-41.802L31.907,-41.802L31.907,-42.948L20.484,-42.948L20.484,-41.802L21.609,-41.802C22.867,-41.802 23.79,-41.328 24.396,-40.361C24.823,-39.619 25.05,-37.821 25.05,-34.942L25.05,-8.839L7.016,-42.948L0,-42.948L0,-41.802Z" style="fill:white;"/>
        </g>
        <g transform="matrix(1,0,0,1,479.202,232.172)">
            <path d="M0,-34.267C-3.171,-29.861 -4.745,-24.217 -4.745,-17.292C-4.745,-10.499 -3.373,-4.968 -0.654,-0.696C2.068,3.6 5.441,5.712 9.464,5.712C13.421,5.712 16.793,3.53 19.604,-0.854C22.393,-5.239 23.789,-10.748 23.789,-17.38C23.789,-23.814 22.414,-29.184 19.65,-33.501C16.863,-37.82 13.601,-39.979 9.824,-39.979C6.003,-39.979 2.718,-38.068 0,-34.267M16.188,-33.299C18.212,-29.612 19.222,-24.038 19.222,-16.549C19.222,-9.623 18.302,-4.586 16.458,-1.372C14.591,1.843 12.253,3.419 9.42,3.419C6.745,3.419 4.606,1.957 3.013,-0.968C0.876,-4.81 -0.18,-10.322 -0.18,-17.451C-0.18,-24.42 0.852,-29.703 2.877,-33.323C4.519,-36.224 6.676,-37.686 9.397,-37.686C12.274,-37.686 14.545,-36.224 16.188,-33.299" style="fill:white;"/>
        </g>
        <g transform="matrix(1,0,0,1,522.394,237.885)">
            <path d="M0,-45.692C-0.134,-44.747 -0.336,-44.142 -0.54,-43.847C-0.786,-43.532 -1.057,-43.399 -1.414,-43.399C-1.73,-43.399 -2.293,-43.623 -3.034,-44.142C-4.722,-45.173 -6.293,-45.692 -7.778,-45.692C-10.162,-45.692 -12.141,-44.567 -13.671,-42.318C-15.199,-40.07 -15.964,-37.372 -15.964,-34.269C-15.964,-32.468 -15.693,-30.828 -15.132,-29.345C-14.569,-27.839 -13.737,-26.489 -12.657,-25.253C-11.557,-23.992 -9.712,-22.35 -7.081,-20.281C-4.451,-18.214 -2.854,-16.864 -2.337,-16.212C-1.551,-15.223 -0.967,-14.168 -0.562,-13.044C-0.18,-11.895 0,-10.772 0,-9.671C0,-7.668 -0.54,-5.939 -1.595,-4.476C-2.675,-3.014 -4.115,-2.294 -5.958,-2.294C-7.531,-2.294 -8.994,-2.813 -10.32,-3.845C-11.646,-4.88 -12.657,-6.184 -13.289,-7.734C-13.939,-9.312 -14.457,-11.669 -14.839,-14.84L-15.964,-14.84L-15.964,0L-14.839,0C-14.749,-0.923 -14.594,-1.529 -14.389,-1.845C-14.163,-2.112 -13.896,-2.294 -13.535,-2.294C-13.152,-2.294 -12.253,-1.957 -10.883,-1.326C-9.488,-0.722 -8.565,-0.383 -8.115,-0.271C-7.373,-0.091 -6.588,0 -5.73,0C-3.057,0 -0.852,-1.193 0.856,-3.575C2.564,-5.982 3.419,-8.859 3.419,-12.165C3.419,-13.897 3.171,-15.56 2.677,-17.159C2.183,-18.754 1.484,-20.126 0.584,-21.318C-0.36,-22.486 -2.202,-24.173 -5.013,-26.399C-8.477,-29.095 -10.681,-31.277 -11.579,-32.921C-12.231,-34.023 -12.547,-35.257 -12.547,-36.629C-12.547,-38.362 -12.072,-39.934 -11.15,-41.33C-10.229,-42.701 -9.061,-43.399 -7.644,-43.399C-6.386,-43.399 -5.193,-42.88 -4.022,-41.893C-2.854,-40.856 -1.954,-39.485 -1.304,-37.777C-0.696,-36.045 -0.246,-33.729 0,-30.828L1.146,-30.828L1.146,-45.692L0,-45.692Z" style="fill:white;"/>
        </g>
        <g transform="matrix(1,0,0,1,551.536,193.339)">
            <path d="M0,43.399C5.709,43.399 9.96,41.15 12.771,36.631C15.265,32.582 16.505,27.523 16.505,21.476C16.505,16.979 15.74,13.022 14.188,9.579C12.657,6.162 10.815,3.69 8.678,2.227C6.52,0.743 3.236,0 -1.17,0L-13.154,0L-13.154,1.147L-11.962,1.147C-10.772,1.147 -9.851,1.642 -9.266,2.631C-8.813,3.351 -8.59,5.152 -8.59,8.007L-8.59,35.415C-8.59,38.022 -8.77,39.666 -9.108,40.408C-9.692,41.666 -10.636,42.252 -11.962,42.252L-13.154,42.252L-13.154,43.399L0,43.399ZM-5.173,3.215C-3.418,2.609 -1.866,2.295 -0.496,2.295C3.146,2.295 6.138,4.027 8.455,7.488C10.768,10.954 11.938,15.717 11.938,21.7C11.938,27.681 10.768,32.402 8.455,35.889C6.138,39.396 3.215,41.128 -0.316,41.128C-1.643,41.128 -3.238,40.835 -5.173,40.228L-5.173,3.215Z" style="fill:white;"/>
        </g>
        <g transform="matrix(1,0,0,1,585.196,234.443)">
            <path d="M0,-38.81C1.46,-38.81 2.473,-38.653 3.034,-38.359C3.754,-37.934 4.317,-37.303 4.675,-36.471C5.034,-35.664 5.373,-34.132 5.689,-31.974L6.813,-31.974L6.813,-41.104L-16.011,-41.104L-16.011,-39.958L-14.886,-39.958C-13.56,-39.958 -12.615,-39.484 -12.054,-38.583C-11.648,-37.889 -11.447,-36.067 -11.447,-33.098L-11.447,-5.69C-11.447,-3.441 -11.535,-1.957 -11.715,-1.259C-11.895,-0.516 -12.233,0.024 -12.752,0.381C-13.423,0.898 -14.145,1.147 -14.886,1.147L-16.011,1.147L-16.011,2.294L6.519,2.294L9.105,-9.129L7.959,-9.129C7.016,-6.251 6.093,-4.115 5.192,-2.7C4.497,-1.62 3.777,-0.899 3.013,-0.539C2.271,-0.157 1.056,0.024 -0.609,0.024L-5.601,0.024C-6.41,0.024 -6.972,-0.113 -7.239,-0.358C-7.534,-0.61 -7.758,-0.92 -7.849,-1.351C-7.961,-1.778 -8.004,-2.967 -8.004,-4.901L-8.004,-19.405L-1.171,-19.405C-0.248,-19.405 0.428,-19.204 0.854,-18.821C1.302,-18.46 1.618,-17.944 1.82,-17.268C1.957,-16.752 2.091,-15.536 2.248,-13.694L3.395,-13.694L3.395,-27.387L2.248,-27.387C2.18,-25.138 1.888,-23.585 1.326,-22.711C0.898,-22.013 0.089,-21.676 -1.171,-21.676L-8.004,-21.676L-8.004,-38.81L0,-38.81Z" style="fill:white;"/>
        </g>
        <g transform="matrix(1,0,0,1,629.672,183.063)">
            <path d="M0,53.675L13.693,8.525L13.693,44.544C13.693,47.603 13.514,49.581 13.175,50.436C12.613,51.852 11.647,52.528 10.274,52.528L9.128,52.528L9.128,53.675L22.821,53.675L22.821,52.528L21.697,52.528C20.438,52.528 19.517,51.987 18.934,50.841C18.482,50.029 18.257,47.917 18.257,44.544L18.257,9.13C18.257,6.074 18.437,4.093 18.775,3.24C19.358,1.844 20.325,1.149 21.697,1.149L22.821,1.149L22.821,0L14.638,0L1.032,44.882L-13.693,0L-22.823,0L-22.823,1.149C-21.497,1.149 -20.553,1.419 -19.946,1.936C-19.36,2.453 -18.955,3.106 -18.729,3.891C-18.415,4.972 -18.26,6.702 -18.26,9.13L-18.26,44.544C-18.26,47.603 -18.439,49.581 -18.775,50.436C-19.338,51.852 -20.329,52.528 -21.677,52.528L-22.823,52.528L-22.823,53.675L-11.399,53.675L-11.399,52.528L-12.547,52.528C-13.829,52.528 -14.752,51.987 -15.335,50.841C-15.762,50.029 -15.966,47.917 -15.966,44.544L-15.966,8.525L-1.125,53.675L0,53.675Z" style="fill:white;"/>
        </g>
        <g transform="matrix(1,0,0,1,669.648,234.443)">
            <path d="M0,-38.81C1.463,-38.81 2.473,-38.653 3.036,-38.359C3.756,-37.934 4.296,-37.303 4.678,-36.471C5.038,-35.664 5.376,-34.132 5.69,-31.974L6.814,-31.974L6.814,-41.104L-16.007,-41.104L-16.007,-39.958L-14.883,-39.958C-13.557,-39.958 -12.611,-39.484 -12.05,-38.583C-11.646,-37.889 -11.443,-36.067 -11.443,-33.098L-11.443,-5.69C-11.443,-3.441 -11.534,-1.957 -11.714,-1.259C-11.892,-0.516 -12.229,0.024 -12.748,0.381C-13.422,0.898 -14.141,1.147 -14.883,1.147L-16.007,1.147L-16.007,2.294L6.522,2.294L9.108,-9.129L7.961,-9.129C7.017,-6.251 6.096,-4.115 5.196,-2.7C4.498,-1.62 3.777,-0.899 3.013,-0.539C2.271,-0.157 1.059,0.024 -0.604,0.024L-5.599,0.024C-6.406,0.024 -6.968,-0.113 -7.238,-0.358C-7.531,-0.61 -7.756,-0.92 -7.848,-1.351C-7.957,-1.778 -8.026,-2.967 -8.026,-4.901L-8.026,-19.405L-1.168,-19.405C-0.268,-19.405 0.43,-19.204 0.857,-18.821C1.283,-18.46 1.62,-17.944 1.802,-17.268C1.957,-16.752 2.091,-15.536 2.25,-13.694L3.395,-13.694L3.395,-27.387L2.25,-27.387C2.184,-25.138 1.89,-23.585 1.327,-22.711C0.9,-22.013 0.091,-21.676 -1.168,-21.676L-8.026,-21.676L-8.026,-38.81L0,-38.81Z" style="fill:white;"/>
        </g>
        <g transform="matrix(1,0,0,1,702.727,228.191)">
            <path d="M0,-26.305C1.125,-28.622 2.023,-30.219 2.676,-31.075C3.304,-31.927 4.002,-32.603 4.787,-33.119C5.283,-33.432 5.934,-33.635 6.746,-33.705L6.746,-34.852L-2.925,-34.852L-2.925,-33.705C-1.912,-33.681 -1.238,-33.569 -0.922,-33.389C-0.586,-33.187 -0.337,-32.87 -0.114,-32.401C0.045,-32.041 0.133,-31.637 0.133,-31.162C0.133,-30.714 0.066,-30.24 -0.07,-29.792C-0.226,-29.342 -0.586,-28.532 -1.147,-27.342L-6.882,-16.683L-11.603,-27.026C-12.279,-28.734 -12.616,-30.039 -12.616,-30.917C-12.616,-31.591 -12.413,-32.2 -11.984,-32.761C-11.581,-33.323 -10.816,-33.635 -9.67,-33.705L-9.67,-34.852L-22.463,-34.852L-22.463,-33.705C-21.07,-33.635 -19.832,-33.073 -18.775,-31.994C-17.698,-30.917 -16.372,-28.646 -14.841,-25.227L-9.13,-12.524L-15.99,0.202C-17.021,2.138 -17.922,3.6 -18.708,4.52C-19.496,5.442 -20.329,6.206 -21.183,6.724C-21.721,7.084 -22.354,7.308 -23.071,7.4L-23.071,8.547L-13.108,8.547L-13.108,7.4C-14.188,7.33 -14.909,7.063 -15.292,6.588C-15.674,6.118 -15.854,5.51 -15.854,4.792C-15.854,4.317 -15.809,3.87 -15.674,3.419C-15.562,2.969 -15.177,2.069 -14.549,0.742L-8.344,-10.768L-3.104,0.742C-2.406,2.249 -2.046,3.17 -1.937,3.531C-1.8,4.028 -1.732,4.498 -1.732,4.993C-1.732,5.376 -1.845,5.758 -2.023,6.161C-2.227,6.544 -2.475,6.86 -2.745,7.041C-3.148,7.264 -3.757,7.4 -4.566,7.4L-4.566,8.547L6.948,8.547L6.948,7.4C5.665,7.308 4.606,6.746 3.799,5.737C2.967,4.724 1.709,2.318 0,-1.527L-6.096,-14.93L0,-26.305Z" style="fill:white;"/>
        </g>
        <g transform="matrix(1,0,0,1,722.13,194.487)">
            <path d="M0,41.104C-0.765,41.104 -1.462,40.855 -2.157,40.316C-2.653,39.911 -2.991,39.417 -3.125,38.856C-3.352,38.115 -3.439,36.583 -3.439,34.267L-3.439,6.859C-3.439,4.092 -3.237,2.362 -2.855,1.663C-2.249,0.54 -1.305,-0.001 0,-0.001L1.123,-0.001L1.123,-1.147L-11.424,-1.147L-11.424,-0.001L-10.299,-0.001C-9.558,-0.001 -8.814,0.272 -8.116,0.812C-7.645,1.216 -7.33,1.686 -7.15,2.272C-6.97,3.013 -6.857,4.521 -6.857,6.859L-6.857,34.267C-6.857,37.011 -7.061,38.743 -7.421,39.462C-8.028,40.564 -8.973,41.104 -10.299,41.104L-11.424,41.104L-11.424,42.251L1.123,42.251L1.123,41.104L0,41.104Z" style="fill:white;"/>
        </g>
        <g transform="matrix(1,0,0,1,748.369,237.885)">
            <path d="M0,-45.692C-0.135,-44.906 -0.404,-44.297 -0.718,-43.869C-0.988,-43.532 -1.28,-43.399 -1.619,-43.399C-1.866,-43.399 -2.248,-43.578 -2.788,-43.936C-4.607,-45.107 -6.498,-45.692 -8.386,-45.692C-10.813,-45.692 -13.063,-44.657 -15.109,-42.679C-17.154,-40.655 -18.753,-37.821 -19.942,-34.178C-21.113,-30.536 -21.675,-26.511 -21.675,-22.172C-21.675,-16.729 -20.731,-12.053 -18.841,-8.051C-16.323,-2.676 -12.749,0 -8.115,0C-5.553,0 -3.327,-0.832 -1.485,-2.451C0.383,-4.094 2.024,-6.702 3.418,-10.277L2.271,-10.277C0.63,-7.085 -0.83,-4.97 -2.202,-3.893C-3.553,-2.813 -5.124,-2.294 -6.901,-2.294C-8.947,-2.294 -10.768,-3.06 -12.367,-4.634C-13.962,-6.206 -15.155,-8.454 -15.941,-11.402C-16.728,-14.324 -17.109,-17.809 -17.109,-21.834C-17.109,-26.668 -16.728,-30.737 -15.896,-34.023C-15.085,-37.281 -13.962,-39.645 -12.546,-41.15C-11.106,-42.656 -9.533,-43.399 -7.733,-43.399C-5.643,-43.399 -3.843,-42.409 -2.336,-40.452C-0.83,-38.495 0.316,-35.303 1.146,-30.828L2.271,-30.828L1.146,-45.692L0,-45.692Z" style="fill:white;"/>
        </g>
        <g transform="matrix(1,0,0,1,759.949,232.172)">
            <path d="M0,-34.267C-3.171,-29.861 -4.742,-24.217 -4.742,-17.292C-4.742,-10.499 -3.372,-4.968 -0.652,-0.696C2.069,3.6 5.442,5.712 9.467,5.712C13.426,5.712 16.798,3.53 19.609,-0.854C22.396,-5.239 23.79,-10.748 23.79,-17.38C23.79,-23.814 22.42,-29.184 19.652,-33.501C16.864,-37.82 13.605,-39.979 9.827,-39.979C6.004,-39.979 2.721,-38.068 0,-34.267M16.19,-33.299C18.213,-29.612 19.228,-24.038 19.228,-16.549C19.228,-9.623 18.305,-4.586 16.46,-1.372C14.594,1.843 12.255,3.419 9.421,3.419C6.747,3.419 4.611,1.957 3.013,-0.968C0.879,-4.81 -0.18,-10.322 -0.18,-17.451C-0.18,-24.42 0.854,-29.703 2.879,-33.323C4.52,-36.224 6.681,-37.686 9.399,-37.686C12.276,-37.686 14.55,-36.224 16.19,-33.299" style="fill:white;"/>
        </g>
        <g transform="matrix(1,0,0,1,34.4443,189.338)">
            <path d="M0,7.824L3.487,7.824L1.708,0L0,7.824Z" style="fill:rgb(5,79,163);fill-rule:nonzero;"/>
        </g>
        <g transform="matrix(1,0,0,1,31.2075,205.842)">
            <path d="M0,-23.947L9.622,-23.947L18.302,0L9.152,0L8.138,-3.034L1.594,-3.034L0.854,0L-8.208,0L0,-23.947Z" style="fill:rgb(5,79,163);fill-rule:nonzero;"/>
        </g>
        <g transform="matrix(1,0,0,1,51.7578,205.842)">
            <path d="M0,-23.947L8.5,-23.947L8.5,-15.898L14.57,-15.898L14.57,-23.947L22.958,-23.947L22.958,0L14.57,0L14.57,-8.32L8.5,-8.32L8.5,0L0,0L0,-23.947Z" style="fill:rgb(5,79,163);fill-rule:nonzero;"/>
        </g>
        <g transform="matrix(1,0,0,1,81.6191,205.842)">
            <path d="M0,-23.947L8.95,-23.947L12.5,-11.357L16.054,-23.947L24.822,-23.947L28.849,0L20.349,0L19.135,-13.31L14.929,0L9.802,0L5.867,-13.31L4.563,0L-3.935,0L0,-23.947Z" style="fill:rgb(5,79,163);fill-rule:nonzero;"/>
        </g>
        <g transform="matrix(1,0,0,1,122.9,206.787)">
            <path d="M0,-25.814L1.778,-25.814C4.339,-25.814 5.982,-24.802 8.836,-23.678L6.275,-17.471C4.813,-18.057 3.553,-19.228 1.192,-19.228C-0.18,-19.228 -1.168,-18.752 -1.168,-17.672C-1.168,-16.392 2.947,-16.346 5.689,-15.134C8.704,-13.83 9.625,-11.153 9.625,-8.724C9.625,-2.339 2.767,0 -0.382,0L-2.538,0C-4.677,0 -8.028,-1.081 -11.175,-2.316L-8.41,-9.13C-6.833,-8.5 -5.575,-6.587 -2.134,-6.587C-0.966,-6.587 0.404,-7.127 0.404,-8.162C0.404,-10.725 -10.184,-9.039 -10.184,-15.92L-10.184,-17.471C-10.184,-20.483 -6.317,-25.814 0,-25.814" style="fill:rgb(5,79,163);fill-rule:nonzero;"/>
        </g>
        <g transform="matrix(1,0,0,1,139.584,205.842)">
            <path d="M0,-23.947L9.625,-23.947L18.304,0L9.152,0L8.118,-3.034L1.577,-3.034L0.834,0L-8.206,0L0,-23.947Z" style="fill:rgb(5,79,163);fill-rule:nonzero;"/>
        </g>
        <g transform="matrix(1,0,0,1,142.801,189.382)">
            <path d="M0,7.826L3.507,7.826L1.732,0L0,7.826Z" style="fill:white;fill-rule:nonzero;"/>
        </g>
        <g transform="matrix(1,0,0,1,123.844,129.121)">
            <path d="M0,45.308C0,45.308 -10.096,25.905 -33.907,25.882C-46.924,25.859 -60.079,32.245 -67.859,45.331L-96.304,45.331C-87.981,19.046 -63.182,-0.023 -33.907,-0.023C-4.63,-0.023 20.149,19.046 28.489,45.308L0,45.308Z" style="fill:rgb(255,196,36);fill-rule:nonzero;"/>
        </g>
        <g transform="matrix(1,0,0,1,123.844,258.59)">
            <path d="M0,-45.304C0,-45.304 -10.096,-25.901 -33.907,-25.879C-46.924,-25.855 -60.079,-32.242 -67.859,-45.328L-96.304,-45.328C-87.981,-19.042 -63.182,0.024 -33.907,0.024C-4.63,0.024 20.149,-19.042 28.489,-45.304L0,-45.304Z" style="fill:rgb(255,196,36);fill-rule:nonzero;"/>
        </g>
        <g transform="matrix(1,0,0,1,34.2939,190.001)">
            <path d="M0,7.826L3.507,7.826L1.732,0L0,7.826Z" style="fill:white;fill-rule:nonzero;"/>
        </g>
    </g>
</svg>
