<?xml version="1.0" encoding="UTF-8" standalone="no"?>
<!DOCTYPE svg PUBLIC "-//W3C//DTD SVG 1.1//EN" "http://www.w3.org/Graphics/SVG/1.1/DTD/svg11.dtd">
<svg width="100%" height="100%" viewBox="0 0 500 350" version="1.1" xmlns="http://www.w3.org/2000/svg" xmlns:xlink="http://www.w3.org/1999/xlink" xml:space="preserve" xmlns:serif="http://www.serif.com/" style="fill-rule:evenodd;clip-rule:evenodd;stroke-linejoin:round;stroke-miterlimit:2;">
    <g transform="matrix(1,0,0,1,-53.5645,-225)">
        <g transform="matrix(1.28758,0,0,1.28758,235.535,232.177)">
            <path d="M84.32,80.09C97.32,83.77 105.67,89.65 105.67,96.28C105.67,107.41 82.02,116.43 52.84,116.43C23.66,116.43 0,107.41 0,96.28C0,89.49 8.79,83.49 22.27,79.84L23.75,81.84C24.75,83.21 25.88,84.57 27.01,85.9C17.58,88.18 11.54,91.7 11.54,95.65C11.54,102.53 29.83,108.11 52.4,108.11C74.97,108.11 93.26,102.53 93.26,95.65C93.26,91.98 88.02,88.65 79.7,86.39C81.34,84.39 82.88,82.25 84.32,80.09Z" style="fill:rgb(214,214,214);fill-rule:nonzero;"/>
        </g>
        <g transform="matrix(1.28758,0,0,1.28758,235.535,232.177)">
            <path d="M70.19,82.78C65.773,87.647 60.685,91.859 55.08,95.29C54.365,95.815 53.394,95.843 52.65,95.36C44.656,90.318 37.558,83.977 31.65,76.6C24,67 19.13,56.34 17.48,46.07C15.83,35.8 17.37,25.65 22.55,17.51C24.655,14.198 27.302,11.264 30.38,8.83C37.68,3 46,-0.06 54.34,0C66.136,0.324 76.996,6.612 83.15,16.68C88.72,25.85 89.92,37.55 87.48,49.4C84.773,61.851 78.805,73.362 70.19,82.75L70.19,82.78ZM52.76,18.51C62.569,18.51 70.64,26.581 70.64,36.39C70.64,46.199 62.569,54.27 52.76,54.27C42.951,54.27 34.88,46.199 34.88,36.39L34.88,36.38C34.88,26.577 42.947,18.51 52.75,18.51L52.76,18.51Z" style="fill:rgb(239,65,54);"/>
        </g>
    </g>
    <g transform="matrix(1,0,0,1,-105.27,-296.305)">
        <path d="M139.028,517.813C138.723,517.813 138.57,517.66 138.57,517.354L138.57,486.188C138.57,485.882 138.723,485.729 139.028,485.729L149.845,485.729C152.87,485.729 155.276,486.524 157.064,488.113C158.851,489.701 159.745,491.856 159.745,494.575L159.745,508.967C159.745,511.686 158.851,513.84 157.064,515.429C155.276,517.018 152.87,517.813 149.845,517.813L139.028,517.813ZM141.824,514.788C141.824,514.91 141.885,514.971 142.008,514.971L149.983,514.971C151.969,514.971 153.55,514.39 154.726,513.229C155.903,512.068 156.491,510.51 156.491,508.554L156.491,495.033C156.491,493.047 155.91,491.474 154.749,490.313C153.588,489.151 151.999,488.571 149.983,488.571L142.008,488.571C141.885,488.571 141.824,488.632 141.824,488.754L141.824,514.788Z" style="fill:white;fill-rule:nonzero;"/>
        <path d="M172.166,494.254C174.916,494.254 177.039,494.957 178.537,496.363C180.034,497.768 180.783,499.632 180.783,501.954L180.783,517.354C180.783,517.66 180.63,517.813 180.324,517.813L177.987,517.813C177.681,517.813 177.528,517.66 177.528,517.354L177.528,515.475C177.528,515.414 177.505,515.368 177.46,515.338C177.414,515.307 177.36,515.322 177.299,515.383C176.535,516.3 175.542,516.995 174.32,517.469C173.098,517.942 171.738,518.179 170.241,518.179C168.071,518.179 166.253,517.629 164.787,516.529C163.32,515.429 162.587,513.749 162.587,511.488C162.587,509.196 163.419,507.385 165.085,506.056C166.75,504.727 169.064,504.063 172.028,504.063L177.345,504.063C177.467,504.063 177.528,504.001 177.528,503.879L177.528,502.138C177.528,500.579 177.093,499.349 176.222,498.448C175.351,497.547 173.999,497.096 172.166,497.096C170.699,497.096 169.508,497.378 168.591,497.944C167.674,498.509 167.109,499.296 166.895,500.304C166.803,500.61 166.62,500.747 166.345,500.717L163.87,500.396C163.534,500.335 163.396,500.213 163.458,500.029C163.702,498.318 164.619,496.928 166.208,495.858C167.796,494.789 169.783,494.254 172.166,494.254ZM170.883,515.383C172.685,515.383 174.244,514.933 175.558,514.031C176.871,513.13 177.528,511.915 177.528,510.388L177.528,506.813C177.528,506.69 177.467,506.629 177.345,506.629L172.533,506.629C170.516,506.629 168.896,507.042 167.674,507.867C166.452,508.692 165.841,509.838 165.841,511.304C165.841,512.649 166.307,513.665 167.239,514.352C168.171,515.04 169.385,515.383 170.883,515.383Z" style="fill:white;fill-rule:nonzero;"/>
        <path d="M201.82,518.179C199.62,518.179 197.733,517.606 196.16,516.46C194.586,515.315 193.509,513.764 192.928,511.808C192.531,510.464 192.333,508.569 192.333,506.125C192.333,503.925 192.531,502.061 192.928,500.533C193.478,498.639 194.548,497.119 196.137,495.973C197.726,494.827 199.62,494.254 201.82,494.254C204.051,494.254 205.983,494.819 207.618,495.95C209.253,497.081 210.314,498.486 210.803,500.167C210.956,500.717 211.048,501.175 211.078,501.542L211.078,501.633C211.078,501.847 210.941,501.985 210.666,502.046L208.374,502.367L208.283,502.367C208.069,502.367 207.931,502.229 207.87,501.954L207.733,501.267C207.458,500.106 206.785,499.12 205.716,498.31C204.646,497.501 203.348,497.096 201.82,497.096C200.292,497.096 199.017,497.501 197.993,498.31C196.969,499.12 196.305,500.197 195.999,501.542C195.724,502.703 195.587,504.246 195.587,506.171C195.587,508.188 195.724,509.746 195.999,510.846C196.305,512.221 196.969,513.313 197.993,514.123C199.017,514.933 200.292,515.338 201.82,515.338C203.317,515.338 204.608,514.948 205.693,514.169C206.778,513.39 207.458,512.389 207.733,511.167L207.733,510.983L207.778,510.8C207.809,510.494 207.992,510.372 208.328,510.433L210.574,510.8C210.88,510.861 211.017,511.029 210.987,511.304L210.803,512.221C210.345,513.993 209.291,515.429 207.641,516.529C205.991,517.629 204.051,518.179 201.82,518.179Z" style="fill:white;fill-rule:nonzero;"/>
        <path d="M215.524,517.813C215.219,517.813 215.066,517.66 215.066,517.354L215.066,486.188C215.066,485.882 215.219,485.729 215.524,485.729L217.862,485.729C218.167,485.729 218.32,485.882 218.32,486.188L218.32,517.354C218.32,517.66 218.167,517.813 217.862,517.813L215.524,517.813Z" style="fill:white;fill-rule:nonzero;"/>
        <path d="M225.974,490.404C225.241,490.404 224.63,490.16 224.141,489.671C223.652,489.182 223.408,488.571 223.408,487.838C223.408,487.074 223.652,486.455 224.141,485.981C224.63,485.508 225.241,485.271 225.974,485.271C226.708,485.271 227.319,485.508 227.808,485.981C228.296,486.455 228.541,487.074 228.541,487.838C228.541,488.571 228.296,489.182 227.808,489.671C227.319,490.16 226.708,490.404 225.974,490.404ZM224.691,517.767C224.385,517.767 224.233,517.614 224.233,517.308L224.233,495.033C224.233,494.728 224.385,494.575 224.691,494.575L227.028,494.575C227.334,494.575 227.487,494.728 227.487,495.033L227.487,517.308C227.487,517.614 227.334,517.767 227.028,517.767L224.691,517.767Z" style="fill:white;fill-rule:nonzero;"/>
        <path d="M242.383,518.179C240.183,518.179 238.296,517.606 236.722,516.46C235.149,515.315 234.071,513.764 233.491,511.808C233.094,510.464 232.895,508.569 232.895,506.125C232.895,503.925 233.094,502.061 233.491,500.533C234.041,498.639 235.11,497.119 236.699,495.973C238.288,494.827 240.183,494.254 242.383,494.254C244.613,494.254 246.546,494.819 248.18,495.95C249.815,497.081 250.877,498.486 251.366,500.167C251.519,500.717 251.61,501.175 251.641,501.542L251.641,501.633C251.641,501.847 251.503,501.985 251.228,502.046L248.937,502.367L248.845,502.367C248.631,502.367 248.494,502.229 248.433,501.954L248.295,501.267C248.02,500.106 247.348,499.12 246.278,498.31C245.209,497.501 243.91,497.096 242.383,497.096C240.855,497.096 239.579,497.501 238.555,498.31C237.532,499.12 236.867,500.197 236.562,501.542C236.287,502.703 236.149,504.246 236.149,506.171C236.149,508.188 236.287,509.746 236.562,510.846C236.867,512.221 237.532,513.313 238.555,514.123C239.579,514.933 240.855,515.338 242.383,515.338C243.88,515.338 245.171,514.948 246.255,514.169C247.34,513.39 248.02,512.389 248.295,511.167L248.295,510.983L248.341,510.8C248.371,510.494 248.555,510.372 248.891,510.433L251.137,510.8C251.442,510.861 251.58,511.029 251.549,511.304L251.366,512.221C250.908,513.993 249.853,515.429 248.203,516.529C246.553,517.629 244.613,518.179 242.383,518.179Z" style="fill:white;fill-rule:nonzero;"/>
        <path d="M256.087,517.813C255.781,517.813 255.628,517.66 255.628,517.354L255.628,486.188C255.628,485.882 255.781,485.729 256.087,485.729L258.424,485.729C258.73,485.729 258.883,485.882 258.883,486.188L258.883,504.933C258.883,504.994 258.905,505.04 258.951,505.071C258.997,505.101 259.051,505.086 259.112,505.025L268.828,494.85C268.981,494.697 269.164,494.621 269.378,494.621L272.128,494.621C272.312,494.621 272.434,494.682 272.495,494.804C272.556,494.926 272.526,495.049 272.403,495.171L266.537,501.679C266.476,501.74 266.46,501.817 266.491,501.908L273.503,517.263L273.549,517.446C273.549,517.69 273.412,517.813 273.137,517.813L270.662,517.813C270.417,517.813 270.249,517.69 270.158,517.446L264.245,504.063C264.184,503.94 264.108,503.925 264.016,504.017L258.974,509.333C258.913,509.394 258.883,509.471 258.883,509.563L258.883,517.354C258.883,517.66 258.73,517.813 258.424,517.813L256.087,517.813Z" style="fill:white;fill-rule:nonzero;"/>
        <path d="M302.103,500.396C302.562,501.863 302.791,503.803 302.791,506.217C302.791,508.661 302.592,510.556 302.195,511.9C301.645,513.856 300.644,515.391 299.193,516.506C297.742,517.622 295.916,518.179 293.716,518.179C292.524,518.179 291.424,517.942 290.416,517.469C289.408,516.995 288.567,516.315 287.895,515.429C287.834,515.368 287.78,515.345 287.735,515.36C287.689,515.376 287.666,515.414 287.666,515.475L287.666,526.246C287.666,526.551 287.513,526.704 287.208,526.704L284.87,526.704C284.564,526.704 284.412,526.551 284.412,526.246L284.412,495.079C284.412,494.774 284.564,494.621 284.87,494.621L287.208,494.621C287.513,494.621 287.666,494.774 287.666,495.079L287.666,497.004C287.666,497.065 287.689,497.103 287.735,497.119C287.78,497.134 287.834,497.111 287.895,497.05C288.567,496.164 289.4,495.476 290.393,494.988C291.386,494.499 292.494,494.254 293.716,494.254C295.855,494.254 297.65,494.804 299.101,495.904C300.553,497.004 301.553,498.501 302.103,500.396ZM298.483,511.992C298.819,511.319 299.071,510.563 299.239,509.723C299.407,508.883 299.491,507.714 299.491,506.217C299.491,504.781 299.43,503.658 299.308,502.848C299.185,502.038 298.971,501.313 298.666,500.671C298.299,499.571 297.65,498.7 296.718,498.058C295.786,497.417 294.678,497.096 293.395,497.096C292.173,497.096 291.149,497.417 290.324,498.058C289.499,498.7 288.888,499.556 288.491,500.625C288.216,501.236 288.017,501.954 287.895,502.779C287.773,503.604 287.712,504.75 287.712,506.217C287.712,507.683 287.773,508.837 287.895,509.677C288.017,510.517 288.231,511.258 288.537,511.9C288.903,512.939 289.507,513.772 290.347,514.398C291.187,515.024 292.188,515.338 293.349,515.338C294.571,515.338 295.633,515.032 296.535,514.421C297.436,513.81 298.085,513 298.483,511.992Z" style="fill:white;fill-rule:nonzero;"/>
        <path d="M315.578,494.254C318.328,494.254 320.452,494.957 321.949,496.363C323.446,497.768 324.195,499.632 324.195,501.954L324.195,517.354C324.195,517.66 324.042,517.813 323.737,517.813L321.399,517.813C321.094,517.813 320.941,517.66 320.941,517.354L320.941,515.475C320.941,515.414 320.918,515.368 320.872,515.338C320.826,515.307 320.773,515.322 320.712,515.383C319.948,516.3 318.955,516.995 317.733,517.469C316.51,517.942 315.151,518.179 313.653,518.179C311.484,518.179 309.666,517.629 308.199,516.529C306.733,515.429 305.999,513.749 305.999,511.488C305.999,509.196 306.832,507.385 308.497,506.056C310.162,504.727 312.477,504.063 315.441,504.063L320.758,504.063C320.88,504.063 320.941,504.001 320.941,503.879L320.941,502.138C320.941,500.579 320.505,499.349 319.635,498.448C318.764,497.547 317.412,497.096 315.578,497.096C314.112,497.096 312.92,497.378 312.003,497.944C311.087,498.509 310.521,499.296 310.308,500.304C310.216,500.61 310.033,500.747 309.758,500.717L307.283,500.396C306.946,500.335 306.809,500.213 306.87,500.029C307.114,498.318 308.031,496.928 309.62,495.858C311.209,494.789 313.195,494.254 315.578,494.254ZM314.295,515.383C316.098,515.383 317.656,514.933 318.97,514.031C320.284,513.13 320.941,511.915 320.941,510.388L320.941,506.813C320.941,506.69 320.88,506.629 320.758,506.629L315.945,506.629C313.928,506.629 312.309,507.042 311.087,507.867C309.864,508.692 309.253,509.838 309.253,511.304C309.253,512.649 309.719,513.665 310.651,514.352C311.583,515.04 312.798,515.383 314.295,515.383Z" style="fill:white;fill-rule:nonzero;"/>
        <path d="M338.495,494.392C339.503,494.392 340.374,494.59 341.108,494.988C341.352,495.11 341.444,495.308 341.383,495.583L340.878,497.829C340.787,498.135 340.588,498.226 340.283,498.104C339.763,497.89 339.167,497.783 338.495,497.783L337.899,497.829C336.31,497.89 334.996,498.478 333.958,499.594C332.919,500.709 332.399,502.122 332.399,503.833L332.399,517.354C332.399,517.66 332.246,517.813 331.941,517.813L329.603,517.813C329.298,517.813 329.145,517.66 329.145,517.354L329.145,495.079C329.145,494.774 329.298,494.621 329.603,494.621L331.941,494.621C332.246,494.621 332.399,494.774 332.399,495.079L332.399,497.875C332.399,497.967 332.422,498.02 332.468,498.035C332.514,498.051 332.552,498.028 332.583,497.967C333.224,496.836 334.042,495.958 335.035,495.331C336.028,494.705 337.181,494.392 338.495,494.392Z" style="fill:white;fill-rule:nonzero;"/>
        <path d="M351.924,494.254C354.674,494.254 356.798,494.957 358.295,496.363C359.792,497.768 360.541,499.632 360.541,501.954L360.541,517.354C360.541,517.66 360.388,517.813 360.083,517.813L357.745,517.813C357.439,517.813 357.287,517.66 357.287,517.354L357.287,515.475C357.287,515.414 357.264,515.368 357.218,515.338C357.172,515.307 357.119,515.322 357.058,515.383C356.294,516.3 355.301,516.995 354.078,517.469C352.856,517.942 351.496,518.179 349.999,518.179C347.83,518.179 346.012,517.629 344.545,516.529C343.078,515.429 342.345,513.749 342.345,511.488C342.345,509.196 343.178,507.385 344.843,506.056C346.508,504.727 348.823,504.063 351.787,504.063L357.103,504.063C357.226,504.063 357.287,504.001 357.287,503.879L357.287,502.138C357.287,500.579 356.851,499.349 355.98,498.448C355.11,497.547 353.758,497.096 351.924,497.096C350.458,497.096 349.266,497.378 348.349,497.944C347.433,498.509 346.867,499.296 346.653,500.304C346.562,500.61 346.378,500.747 346.103,500.717L343.628,500.396C343.292,500.335 343.155,500.213 343.216,500.029C343.46,498.318 344.377,496.928 345.966,495.858C347.555,494.789 349.541,494.254 351.924,494.254ZM350.641,515.383C352.444,515.383 354.002,514.933 355.316,514.031C356.63,513.13 357.287,511.915 357.287,510.388L357.287,506.813C357.287,506.69 357.226,506.629 357.103,506.629L352.291,506.629C350.274,506.629 348.655,507.042 347.433,507.867C346.21,508.692 345.599,509.838 345.599,511.304C345.599,512.649 346.065,513.665 346.997,514.352C347.929,515.04 349.144,515.383 350.641,515.383Z" style="fill:white;fill-rule:nonzero;"/>
        <path d="M378.737,517.813C378.462,517.813 378.278,517.69 378.187,517.446L370.67,495.125L370.624,494.942C370.624,494.728 370.762,494.621 371.037,494.621L373.649,494.621C373.924,494.621 374.108,494.743 374.199,494.988L379.928,512.954C379.959,513.015 380.005,513.046 380.066,513.046C380.127,513.046 380.173,513.015 380.203,512.954L385.933,494.988C386.024,494.743 386.208,494.621 386.483,494.621L389.095,494.667C389.431,494.667 389.553,494.835 389.462,495.171L381.945,517.446C381.853,517.69 381.67,517.813 381.395,517.813L378.737,517.813Z" style="fill:white;fill-rule:nonzero;"/>
        <path d="M409.766,502.321C409.888,503.176 409.949,504.246 409.949,505.529L409.949,506.996C409.949,507.301 409.796,507.454 409.491,507.454L394.687,507.454C394.564,507.454 394.503,507.515 394.503,507.638C394.564,509.318 394.656,510.403 394.778,510.892C395.114,512.267 395.833,513.351 396.933,514.146C398.033,514.94 399.438,515.338 401.149,515.338C402.433,515.338 403.563,515.047 404.541,514.467C405.519,513.886 406.283,513.061 406.833,511.992C407.016,511.717 407.23,511.656 407.474,511.808L409.262,512.863C409.506,513.015 409.567,513.229 409.445,513.504C408.681,514.971 407.535,516.124 406.008,516.965C404.48,517.805 402.723,518.225 400.737,518.225C398.567,518.194 396.749,517.675 395.283,516.667C393.816,515.658 392.762,514.253 392.12,512.45C391.57,510.983 391.295,508.875 391.295,506.125C391.295,504.842 391.318,503.795 391.364,502.985C391.41,502.176 391.524,501.45 391.708,500.808C392.227,498.822 393.274,497.233 394.847,496.042C396.421,494.85 398.323,494.254 400.553,494.254C403.334,494.254 405.473,494.957 406.97,496.363C408.467,497.768 409.399,499.754 409.766,502.321ZM400.553,497.096C399.056,497.096 397.811,497.485 396.818,498.265C395.825,499.044 395.176,500.09 394.87,501.404C394.687,502.046 394.564,503.085 394.503,504.521C394.503,504.643 394.564,504.704 394.687,504.704L406.558,504.704C406.68,504.704 406.741,504.643 406.741,504.521C406.68,503.146 406.588,502.168 406.466,501.588C406.13,500.213 405.45,499.12 404.426,498.31C403.403,497.501 402.112,497.096 400.553,497.096Z" style="fill:white;fill-rule:nonzero;"/>
        <path d="M423.928,494.392C424.937,494.392 425.808,494.59 426.541,494.988C426.785,495.11 426.877,495.308 426.816,495.583L426.312,497.829C426.22,498.135 426.021,498.226 425.716,498.104C425.196,497.89 424.601,497.783 423.928,497.783L423.333,497.829C421.744,497.89 420.43,498.478 419.391,499.594C418.352,500.709 417.833,502.122 417.833,503.833L417.833,517.354C417.833,517.66 417.68,517.813 417.374,517.813L415.037,517.813C414.731,517.813 414.578,517.66 414.578,517.354L414.578,495.079C414.578,494.774 414.731,494.621 415.037,494.621L417.374,494.621C417.68,494.621 417.833,494.774 417.833,495.079L417.833,497.875C417.833,497.967 417.855,498.02 417.901,498.035C417.947,498.051 417.985,498.028 418.016,497.967C418.658,496.836 419.475,495.958 420.468,495.331C421.461,494.705 422.614,494.392 423.928,494.392Z" style="fill:white;fill-rule:nonzero;"/>
        <path d="M454.545,502.321C454.667,503.176 454.728,504.246 454.728,505.529L454.728,506.996C454.728,507.301 454.576,507.454 454.27,507.454L439.466,507.454C439.344,507.454 439.283,507.515 439.283,507.638C439.344,509.318 439.435,510.403 439.558,510.892C439.894,512.267 440.612,513.351 441.712,514.146C442.812,514.94 444.217,515.338 445.928,515.338C447.212,515.338 448.342,515.047 449.32,514.467C450.298,513.886 451.062,513.061 451.612,511.992C451.795,511.717 452.009,511.656 452.253,511.808L454.041,512.863C454.285,513.015 454.346,513.229 454.224,513.504C453.46,514.971 452.314,516.124 450.787,516.965C449.259,517.805 447.502,518.225 445.516,518.225C443.346,518.194 441.528,517.675 440.062,516.667C438.595,515.658 437.541,514.253 436.899,512.45C436.349,510.983 436.074,508.875 436.074,506.125C436.074,504.842 436.097,503.795 436.143,502.985C436.189,502.176 436.303,501.45 436.487,500.808C437.006,498.822 438.053,497.233 439.626,496.042C441.2,494.85 443.102,494.254 445.333,494.254C448.113,494.254 450.252,494.957 451.749,496.363C453.246,497.768 454.178,499.754 454.545,502.321ZM445.333,497.096C443.835,497.096 442.59,497.485 441.597,498.265C440.604,499.044 439.955,500.09 439.649,501.404C439.466,502.046 439.344,503.085 439.283,504.521C439.283,504.643 439.344,504.704 439.466,504.704L451.337,504.704C451.459,504.704 451.52,504.643 451.52,504.521C451.459,503.146 451.367,502.168 451.245,501.588C450.909,500.213 450.229,499.12 449.205,498.31C448.182,497.501 446.891,497.096 445.333,497.096Z" style="fill:white;fill-rule:nonzero;"/>
        <path d="M459.816,517.813C459.51,517.813 459.358,517.66 459.358,517.354L459.358,486.188C459.358,485.882 459.51,485.729 459.816,485.729L462.153,485.729C462.459,485.729 462.612,485.882 462.612,486.188L462.612,517.354C462.612,517.66 462.459,517.813 462.153,517.813L459.816,517.813Z" style="fill:white;fill-rule:nonzero;"/>
        <path d="M498.866,494.3C501.158,494.3 502.968,494.988 504.297,496.363C505.626,497.738 506.291,499.617 506.291,502L506.291,517.354C506.291,517.66 506.138,517.813 505.833,517.813L503.541,517.813C503.235,517.813 503.083,517.66 503.083,517.354L503.083,502.642C503.083,500.961 502.601,499.624 501.639,498.631C500.676,497.638 499.416,497.142 497.858,497.142C496.238,497.142 494.932,497.631 493.939,498.608C492.946,499.586 492.449,500.9 492.449,502.55L492.449,517.354C492.449,517.66 492.296,517.813 491.991,517.813L489.653,517.813C489.348,517.813 489.195,517.66 489.195,517.354L489.195,502.642C489.195,500.961 488.721,499.624 487.774,498.631C486.827,497.638 485.559,497.142 483.97,497.142C482.351,497.142 481.06,497.631 480.097,498.608C479.135,499.586 478.653,500.9 478.653,502.55L478.653,517.354C478.653,517.66 478.501,517.813 478.195,517.813L475.858,517.813C475.552,517.813 475.399,517.66 475.399,517.354L475.399,495.079C475.399,494.774 475.552,494.621 475.858,494.621L478.195,494.621C478.501,494.621 478.653,494.774 478.653,495.079L478.653,496.913C478.653,496.974 478.676,497.012 478.722,497.027C478.768,497.042 478.821,497.019 478.883,496.958C479.555,496.072 480.418,495.408 481.472,494.965C482.526,494.522 483.695,494.3 484.978,494.3C486.567,494.3 487.927,494.621 489.058,495.263C490.188,495.904 491.044,496.836 491.624,498.058C491.685,498.211 491.762,498.211 491.853,498.058C492.526,496.806 493.473,495.866 494.695,495.24C495.917,494.613 497.308,494.3 498.866,494.3Z" style="fill:white;fill-rule:nonzero;"/>
        <path d="M519.491,494.254C522.241,494.254 524.364,494.957 525.862,496.363C527.359,497.768 528.108,499.632 528.108,501.954L528.108,517.354C528.108,517.66 527.955,517.813 527.649,517.813L525.312,517.813C525.006,517.813 524.853,517.66 524.853,517.354L524.853,515.475C524.853,515.414 524.83,515.368 524.785,515.338C524.739,515.307 524.685,515.322 524.624,515.383C523.86,516.3 522.867,516.995 521.645,517.469C520.423,517.942 519.063,518.179 517.566,518.179C515.396,518.179 513.578,517.629 512.112,516.529C510.645,515.429 509.912,513.749 509.912,511.488C509.912,509.196 510.744,507.385 512.41,506.056C514.075,504.727 516.389,504.063 519.353,504.063L524.67,504.063C524.792,504.063 524.853,504.001 524.853,503.879L524.853,502.138C524.853,500.579 524.418,499.349 523.547,498.448C522.676,497.547 521.324,497.096 519.491,497.096C518.024,497.096 516.833,497.378 515.916,497.944C514.999,498.509 514.434,499.296 514.22,500.304C514.128,500.61 513.945,500.747 513.67,500.717L511.195,500.396C510.859,500.335 510.721,500.213 510.783,500.029C511.027,498.318 511.944,496.928 513.533,495.858C515.121,494.789 517.108,494.254 519.491,494.254ZM518.208,515.383C520.01,515.383 521.569,514.933 522.883,514.031C524.196,513.13 524.853,511.915 524.853,510.388L524.853,506.813C524.853,506.69 524.792,506.629 524.67,506.629L519.858,506.629C517.841,506.629 516.221,507.042 514.999,507.867C513.777,508.692 513.166,509.838 513.166,511.304C513.166,512.649 513.632,513.665 514.564,514.352C515.496,515.04 516.71,515.383 518.208,515.383Z" style="fill:white;fill-rule:nonzero;"/>
        <path d="M551.07,500.396C551.528,501.863 551.758,503.803 551.758,506.217C551.758,508.661 551.559,510.556 551.162,511.9C550.612,513.856 549.611,515.391 548.16,516.506C546.708,517.622 544.883,518.179 542.683,518.179C541.491,518.179 540.391,517.942 539.383,517.469C538.374,516.995 537.534,516.315 536.862,515.429C536.801,515.368 536.747,515.345 536.701,515.36C536.655,515.376 536.633,515.414 536.633,515.475L536.633,526.246C536.633,526.551 536.48,526.704 536.174,526.704L533.837,526.704C533.531,526.704 533.378,526.551 533.378,526.246L533.378,495.079C533.378,494.774 533.531,494.621 533.837,494.621L536.174,494.621C536.48,494.621 536.633,494.774 536.633,495.079L536.633,497.004C536.633,497.065 536.655,497.103 536.701,497.119C536.747,497.134 536.801,497.111 536.862,497.05C537.534,496.164 538.367,495.476 539.36,494.988C540.353,494.499 541.46,494.254 542.683,494.254C544.821,494.254 546.617,494.804 548.068,495.904C549.519,497.004 550.52,498.501 551.07,500.396ZM547.449,511.992C547.785,511.319 548.037,510.563 548.205,509.723C548.374,508.883 548.458,507.714 548.458,506.217C548.458,504.781 548.396,503.658 548.274,502.848C548.152,502.038 547.938,501.313 547.633,500.671C547.266,499.571 546.617,498.7 545.685,498.058C544.753,497.417 543.645,497.096 542.362,497.096C541.139,497.096 540.116,497.417 539.291,498.058C538.466,498.7 537.855,499.556 537.458,500.625C537.183,501.236 536.984,501.954 536.862,502.779C536.739,503.604 536.678,504.75 536.678,506.217C536.678,507.683 536.739,508.837 536.862,509.677C536.984,510.517 537.198,511.258 537.503,511.9C537.87,512.939 538.474,513.772 539.314,514.398C540.154,515.024 541.155,515.338 542.316,515.338C543.538,515.338 544.6,515.032 545.501,514.421C546.403,513.81 547.052,513 547.449,511.992Z" style="fill:white;fill-rule:nonzero;"/>
        <path d="M564.545,494.254C567.295,494.254 569.419,494.957 570.916,496.363C572.413,497.768 573.162,499.632 573.162,501.954L573.162,517.354C573.162,517.66 573.009,517.813 572.703,517.813L570.366,517.813C570.06,517.813 569.908,517.66 569.908,517.354L569.908,515.475C569.908,515.414 569.885,515.368 569.839,515.338C569.793,515.307 569.739,515.322 569.678,515.383C568.914,516.3 567.921,516.995 566.699,517.469C565.477,517.942 564.117,518.179 562.62,518.179C560.451,518.179 558.633,517.629 557.166,516.529C555.699,515.429 554.966,513.749 554.966,511.488C554.966,509.196 555.799,507.385 557.464,506.056C559.129,504.727 561.444,504.063 564.408,504.063L569.724,504.063C569.846,504.063 569.908,504.001 569.908,503.879L569.908,502.138C569.908,500.579 569.472,499.349 568.601,498.448C567.73,497.547 566.378,497.096 564.545,497.096C563.078,497.096 561.887,497.378 560.97,497.944C560.053,498.509 559.488,499.296 559.274,500.304C559.183,500.61 558.999,500.747 558.724,500.717L556.249,500.396C555.913,500.335 555.776,500.213 555.837,500.029C556.081,498.318 556.998,496.928 558.587,495.858C560.176,494.789 562.162,494.254 564.545,494.254ZM563.262,515.383C565.064,515.383 566.623,514.933 567.937,514.031C569.251,513.13 569.908,511.915 569.908,510.388L569.908,506.813C569.908,506.69 569.846,506.629 569.724,506.629L564.912,506.629C562.895,506.629 561.276,507.042 560.053,507.867C558.831,508.692 558.22,509.838 558.22,511.304C558.22,512.649 558.686,513.665 559.618,514.352C560.55,515.04 561.764,515.383 563.262,515.383Z" style="fill:white;fill-rule:nonzero;"/>
        <rect x="134.262" y="521.25" width="442.017" height="2.292" style="fill:white;fill-rule:nonzero;"/>
    </g>
    <g transform="matrix(0.558637,0,0,0.558637,100.736,-106.452)">
        <g id="g842" transform="matrix(0.582888,0,0,0.582888,-105.486,475.669)">
            <path id="path835" d="M259.554,432.786C264.792,439.329 270.105,447.528 272.899,452.492C276.3,458.944 277.697,463.302 280.232,471.075C281.72,475.356 283.117,476.662 286.077,476.662C289.311,476.662 290.783,474.476 291.922,471.075C294.275,463.742 296.112,458.17 298.982,452.841C304.645,442.639 311.811,433.56 318.779,424.845C320.692,422.401 332.914,408.009 338.41,396.592C338.41,396.592 345.12,384.112 345.12,366.668C345.12,350.362 338.486,339.021 338.486,339.021L319.295,344.168L307.605,374.866L304.721,379.056L304.113,379.846L303.324,380.802L302.018,382.366L300.105,384.279L289.721,392.735L263.82,407.735L259.554,432.786Z" style="fill:rgb(52,168,83);fill-rule:nonzero;"/>
            <path id="path833" d="M232.773,394.496C239.134,408.98 251.264,421.627 259.554,432.786L303.43,380.802C303.43,380.802 297.236,388.909 286.077,388.909C273.597,388.909 263.486,378.965 263.486,366.41C263.486,357.771 268.633,351.85 268.633,351.85L238.876,359.79L232.773,394.496Z" style="fill:rgb(251,188,4);fill-rule:nonzero;"/>
            <path id="path831" d="M303.946,309.978C318.506,314.684 330.986,324.537 338.486,339.112L303.415,380.893C303.415,380.893 308.562,374.881 308.562,366.334C308.562,353.505 297.752,343.834 286.062,343.834C274.979,343.834 268.618,351.865 268.618,351.865L268.618,325.509L303.946,309.978Z" style="fill:rgb(66,133,244);fill-rule:nonzero;"/>
            <path id="path829" d="M240.789,328.378C249.503,317.994 264.777,307.275 285.88,307.275C296.082,307.275 303.84,309.978 303.84,309.978L268.618,351.85L243.673,351.85L240.789,328.378Z" style="fill:rgb(26,115,232);fill-rule:nonzero;"/>
            <path id="path827" d="M232.773,394.496C232.773,394.496 227.019,383.064 227.019,366.592C227.019,350.985 233.122,337.366 240.88,328.47L268.709,351.926L232.773,394.496Z" style="fill:rgb(234,67,53);fill-rule:nonzero;"/>
        </g>
        <g transform="matrix(0.193485,0,0,0.193485,116.923,626.749)">
            <g transform="matrix(1,0,0,1,0,-1230.85)">
                <path d="M1023,1638L1105.8,1603.6C1101.2,1592 1087.6,1584 1071.4,1584C1050.7,1583.9 1022,1602.2 1023,1638M1120.2,1671.3L1151.8,1692.3C1141.6,1707.4 1117.1,1733.4 1074.6,1733.4C1022,1733.4 984,1692.7 984,1640.8C984,1585.7 1022.3,1548.2 1070.1,1548.2C1114,1549.7 1141.3,1578 1153.6,1617.6L1029.6,1668.8C1039.1,1687.4 1053.8,1696.9 1074.5,1696.9C1095.1,1696.9 1109.5,1686.7 1120,1671.3M919,1727.8L959.7,1727.8L959.7,1455.8L919,1455.8L919,1727.8ZM852.6,1641.1C852.6,1608.5 830.8,1584.6 803.1,1584.6C775.1,1584.6 751.5,1608.5 751.5,1641.1C751.5,1673.4 775,1696.9 803.1,1696.9C830.9,1696.9 852.6,1673.4 852.6,1641.1ZM888.4,1553.5L888.4,1719.8C888.4,1788.2 848.1,1816.3 800.4,1816.3C755.5,1816.3 728.5,1786.1 718.3,1761.6L753.7,1746.9C760,1762 775.5,1779.9 800.4,1779.9C845.9,1774.73 849.9,1745.3 849.9,1712.2L848.4,1712.2C839.3,1723.4 821.7,1733.3 799.6,1733.3C753.3,1733.3 710.8,1693 710.8,1641C710.8,1588.7 753.2,1548 799.6,1548C821.7,1548 839.3,1557.8 848.4,1568.7L849.8,1568.7L849.8,1553.6C849.8,1553.5 888.4,1553.5 888.4,1553.5ZM444.4,1640.8C444.4,1607.5 420.6,1584.7 393.1,1584.7C365.5,1584.7 341.8,1607.5 341.8,1640.8C341.8,1673.8 365.6,1696.9 393.1,1696.9C420.6,1696.9 444.4,1673.7 444.4,1640.8M484.4,1640.8C484.4,1694.1 443.4,1733.4 393.1,1733.4C342.8,1733.4 301.8,1694.1 301.8,1640.8C301.8,1587.1 342.8,1548.2 393.1,1548.2C443.4,1548.2 484.4,1587.1 484.4,1640.8M649.4,1640.8C649.4,1607.5 625.6,1584.7 598.1,1584.7C570.5,1584.7 546.8,1607.5 546.8,1640.8C546.8,1673.8 570.6,1696.9 598.1,1696.9C625.6,1696.9 649.4,1673.7 649.4,1640.8M689.4,1640.8C689.4,1694.1 648.4,1733.4 598.1,1733.4C547.8,1733.4 506.8,1694.1 506.8,1640.8C506.8,1587.1 547.8,1548.2 598.1,1548.2C648.4,1548.2 689.4,1587.1 689.4,1640.8M145.4,1733.4C66.2,1733.4 -0.6,1668.8 -0.6,1589.4C-0.6,1510.1 66.1,1445.4 145.4,1445.4C189.3,1445.4 220.5,1462.6 244,1485.1L216.3,1512.8C199.5,1497 176.7,1484.7 145.4,1484.7C87.5,1484.7 42.4,1531.4 42.4,1588.7C42.4,1646.6 87.7,1692.7 145.4,1692.7C182.9,1692.7 204.3,1677.6 218,1663.9C229.2,1652.7 236.6,1636.5 239.4,1614.4L145.4,1614.4L145.4,1575.1L277.4,1575.1C278.8,1582.1 279.5,1590.5 279.5,1599.6C279.5,1629.1 271.4,1665.6 245.5,1691.5C220.3,1718 188,1732.1 145.5,1732.1" style="fill:rgb(214,214,214);"/>
            </g>
            <g transform="matrix(1,0,0,1,0,-1230.85)">
                <path d="M1249.14,1725.74L1249.14,1483.93L1280.37,1483.93L1364.35,1631.21L1365.61,1631.21L1449.59,1483.93L1480.82,1483.93L1480.82,1725.74L1449.6,1725.74L1450.87,1541.75L1449.6,1541.75L1374.06,1674.26L1355.92,1674.26L1280.38,1541.75L1279.11,1541.75C1281.42,1602.95 1280.38,1664.55 1280.38,1725.74L1249.14,1725.74ZM1578.3,1729.96C1560.58,1729.96 1546.23,1724.9 1534.41,1714.77C1522.6,1704.64 1516.69,1691.14 1516.69,1674.67C1516.69,1656.52 1523.86,1642.6 1537.79,1632.47C1551.71,1622.34 1569.02,1617.28 1589.27,1617.28C1607.42,1617.28 1622.61,1620.65 1634,1627.4C1633.7,1592.3 1609.44,1582.67 1590.54,1582.67C1572.69,1583.52 1557.2,1590.99 1550.87,1606.73L1522.6,1594.49C1526.39,1584.78 1533.99,1575.49 1545.38,1567.06C1556.78,1558.63 1571.55,1554.4 1590.12,1554.4C1611.22,1554.4 1628.94,1560.73 1642.87,1572.97C1656.79,1585.2 1663.97,1602.93 1663.97,1625.29L1663.97,1725.31L1634.43,1725.31L1634.43,1702.52C1620.63,1719.82 1601.97,1729.57 1578.3,1729.95L1578.3,1729.96ZM1634,1653.16C1615.82,1639.31 1577.88,1637.58 1560.15,1651.89C1546.23,1665.39 1544.75,1683.5 1559.31,1694.09C1594.51,1716.67 1635.27,1681.51 1634,1653.16ZM1785.08,1729.96C1772.42,1729.96 1761.03,1727.43 1751.32,1721.94C1741.61,1716.46 1734.02,1709.7 1728.95,1701.69L1727.27,1701.69L1728.53,1724.47L1728.53,1797.48L1697.73,1797.48L1697.73,1559.05L1727.27,1559.05L1727.27,1581.84L1728.53,1581.84C1733.6,1573.82 1740.77,1567.07 1750.9,1561.58C1761.03,1556.1 1772.42,1553.56 1784.66,1553.56C1806.18,1553.56 1824.33,1562 1839.94,1578.88C1855.55,1595.76 1863.14,1616.86 1863.14,1641.76C1863.14,1666.66 1855.54,1687.76 1839.94,1704.64C1824.75,1721.52 1806.18,1729.96 1785.08,1729.96ZM1780.02,1701.26C1794.36,1701.26 1806.6,1695.78 1817.15,1684.81C1827.7,1673.83 1832.77,1659.49 1832.77,1641.34C1832.77,1623.19 1827.7,1608.85 1817.15,1597.87C1806.6,1586.9 1794.36,1581.42 1780.02,1581.42C1765.25,1581.42 1753.01,1586.9 1742.88,1597.45C1732.75,1608.42 1727.69,1622.77 1727.69,1640.92C1727.69,1659.06 1732.75,1673.83 1742.88,1684.38C1753.01,1696.2 1765.25,1701.26 1780.02,1701.26ZM1953.88,1729.96C1935.31,1729.96 1920.12,1725.32 1908.3,1716.46C1896.07,1707.59 1887.63,1696.2 1881.72,1682.7L1909.57,1671.3C1918.43,1691.98 1933.2,1702.53 1954.3,1702.53C1964.01,1702.53 1972.03,1700.43 1977.93,1696.2C1984.26,1691.98 1987.22,1686.49 1987.22,1679.32C1987.22,1668.35 1979.62,1661.17 1964.43,1657.38L1931.09,1649.36C1920.54,1646.83 1910.41,1641.34 1901.13,1634.17C1891.85,1626.99 1886.78,1616.44 1886.78,1603.78C1886.78,1589.01 1893.11,1577.2 1906.19,1568.33C1919.28,1559.05 1934.47,1554.83 1952.19,1554.83C1966.96,1554.83 1980.04,1558.21 1991.44,1564.96C2002.83,1571.71 2011.27,1580.99 2015.91,1593.65L1988.91,1604.63C1983,1589.86 1970.34,1582.68 1950.93,1582.68C1941.64,1582.68 1934.05,1584.78 1927.73,1588.59C1921.41,1592.4 1918.44,1597.45 1918.44,1604.2C1918.44,1613.49 1925.62,1620.24 1940.39,1623.62L1973.3,1631.21C1988.92,1635.01 2000.31,1640.92 2007.91,1649.78C2015.5,1658.64 2018.88,1668.35 2018.88,1679.32C2018.88,1694.09 2012.97,1706.75 2000.73,1716.46C1988.92,1724.9 1973.3,1729.96 1953.89,1729.96L1953.88,1729.96Z" style="fill:rgb(214,214,214);fill-rule:nonzero;"/>
            </g>
        </g>
    </g>
</svg>
