<?xml version="1.0" encoding="UTF-8" standalone="no"?>
<!DOCTYPE svg PUBLIC "-//W3C//DTD SVG 1.1//EN" "http://www.w3.org/Graphics/SVG/1.1/DTD/svg11.dtd">
<svg width="100%" height="100%" viewBox="0 0 1225 270" version="1.1" xmlns="http://www.w3.org/2000/svg" xmlns:xlink="http://www.w3.org/1999/xlink" xml:space="preserve" xmlns:serif="http://www.serif.com/" style="fill-rule:evenodd;clip-rule:evenodd;stroke-linejoin:round;stroke-miterlimit:2;">
    <g transform="matrix(1.49737,0,0,1.49014,331.421,356.03)">
        <g transform="matrix(1.06818,0,0,1.06818,-5.42206,-124.291)">
            <path d="M0,-1.849C0.423,-1.849 0.792,-1.841 1.104,-1.825C1.416,-1.808 1.673,-1.801 1.874,-1.801C6.2,-1.801 9.461,-3.163 11.659,-5.889C13.855,-8.615 14.954,-12.086 14.954,-16.305C14.954,-20.425 14.067,-23.776 12.294,-26.355C10.521,-28.935 8.174,-30.224 5.252,-30.224C3.958,-30.224 2.208,-29.916 0,-29.3L0,-1.849ZM32.216,32.075L20.105,32.075L4.75,1.217C3.613,1.282 2.688,1.315 1.974,1.315C1.684,1.315 1.372,1.307 1.037,1.29C0.703,1.274 0.356,1.25 0,1.217L0,20.394C0,24.547 0.312,27.127 0.937,28.132C1.784,29.56 3.055,30.274 4.75,30.274L6.523,30.274L6.523,32.075L-12.913,32.075L-12.913,30.274L-11.207,30.274C-9.289,30.274 -7.917,29.366 -7.092,27.548C-6.624,26.543 -6.39,24.158 -6.39,20.394L-6.39,-22.243C-6.39,-26.395 -6.702,-28.975 -7.326,-29.981C-8.196,-31.409 -9.49,-32.123 -11.207,-32.123L-12.913,-32.123L-12.913,-33.924L3.613,-33.924C8.43,-33.924 11.981,-33.412 14.268,-32.391C16.554,-31.369 18.494,-29.486 20.089,-26.745C21.683,-24.002 22.481,-20.734 22.481,-16.937C22.481,-12.881 21.572,-9.361 19.754,-6.376C17.937,-3.39 15.121,-1.281 11.307,-0.048L20.674,18.884C22.815,23.233 24.655,26.121 26.194,27.548C27.733,28.976 29.74,29.884 32.216,30.274L32.216,32.075Z" style="fill:white;fill-rule:nonzero;"/>
        </g>
        <g transform="matrix(1.06818,0,0,1.06818,39.0105,-93.1542)">
            <path d="M0,-47.746L0,-26.56L8.096,-26.56C10.197,-26.56 11.601,-27.021 12.307,-27.944C13.248,-29.156 13.774,-31.29 13.882,-34.347L14.888,-34.347L14.888,-15.691L13.882,-15.691C13.628,-18.3 13.375,-19.973 13.122,-20.711C12.796,-21.633 12.261,-22.357 11.519,-22.885C10.776,-23.412 9.635,-23.675 8.096,-23.675L0,-23.675L0,-6.007C0,-3.636 0.072,-2.193 0.217,-1.679C0.362,-1.165 0.616,-0.756 0.978,-0.454C1.34,-0.151 2.028,0.001 3.043,0.001L9.291,0.001C11.374,0.001 12.886,-0.21 13.828,-0.632C14.77,-1.053 15.675,-1.883 16.545,-3.121C17.667,-4.755 18.817,-7.219 19.995,-10.513L21.082,-10.513L17.903,2.925L-10.486,2.925L-10.486,1.462L-9.183,1.462C-8.313,1.462 -7.489,1.161 -6.71,0.554C-6.131,0.132 -5.737,-0.499 -5.528,-1.343C-5.32,-2.186 -5.216,-3.913 -5.216,-6.521L-5.216,-41.343C-5.216,-44.742 -5.452,-46.837 -5.922,-47.627C-6.574,-48.681 -7.661,-49.208 -9.183,-49.208L-10.486,-49.208L-10.486,-50.671L17.903,-50.671L18.311,-38.932L17.251,-38.932C16.871,-41.751 16.45,-43.688 15.988,-44.742C15.526,-45.795 14.842,-46.6 13.937,-47.153C13.212,-47.548 11.936,-47.746 10.106,-47.746L0,-47.746Z" style="fill:white;fill-rule:nonzero;"/>
        </g>
        <g transform="matrix(1.06818,0,0,1.06818,97.248,-88.7201)">
            <path d="M0,-56.047L0.842,-37.826L0,-37.826C-1.123,-43.28 -2.726,-47.207 -4.809,-49.605C-6.892,-52.002 -9.391,-53.201 -12.307,-53.201C-14.752,-53.201 -16.962,-52.298 -18.936,-50.494C-20.91,-48.689 -22.463,-45.81 -23.595,-41.858C-24.727,-37.905 -25.292,-32.99 -25.292,-27.115C-25.292,-22.266 -24.759,-18.064 -23.69,-14.506C-22.621,-10.949 -21.014,-8.222 -18.868,-6.324C-16.721,-4.427 -14.272,-3.479 -11.519,-3.479C-9.128,-3.479 -7.019,-4.223 -5.189,-5.712C-3.36,-7.2 -1.35,-10.158 0.842,-14.585L1.684,-13.795C-0.163,-9.026 -2.319,-5.534 -4.781,-3.32C-7.245,-1.108 -10.17,0 -13.557,0C-19.66,0 -24.387,-3.294 -27.738,-9.882C-30.237,-14.783 -31.487,-20.553 -31.487,-27.194C-31.487,-32.543 -30.663,-37.457 -29.015,-41.937C-27.367,-46.416 -25.098,-49.887 -22.209,-52.352C-19.32,-54.815 -16.165,-56.047 -12.741,-56.047C-10.079,-56.047 -7.453,-55.098 -4.863,-53.201C-4.103,-52.621 -3.559,-52.332 -3.233,-52.332C-2.744,-52.332 -2.319,-52.582 -1.956,-53.083C-1.485,-53.794 -1.15,-54.782 -0.951,-56.047L0,-56.047Z" style="fill:white;fill-rule:nonzero;"/>
        </g>
        <g transform="matrix(1.06818,0,0,1.06818,128.033,-90.2407)">
            <path d="M0,-51.936L0,-53.398L13.041,-53.398L13.041,-51.936L11.655,-51.936C10.206,-51.936 9.092,-51.053 8.313,-49.288C7.933,-48.471 7.743,-46.573 7.743,-43.596L7.743,-21.857C7.743,-16.482 7.376,-12.312 6.643,-9.347C5.909,-6.383 4.469,-3.84 2.323,-1.719C0.177,0.402 -2.744,1.462 -6.438,1.462C-10.459,1.462 -13.511,0.448 -15.594,-1.581C-17.677,-3.61 -19.152,-6.336 -20.022,-9.762C-20.602,-12.108 -20.891,-16.508 -20.891,-22.964L-20.891,-43.912C-20.891,-47.206 -21.204,-49.367 -21.829,-50.394C-22.453,-51.422 -23.463,-51.936 -24.857,-51.936L-26.243,-51.936L-26.243,-53.398L-10.323,-53.398L-10.323,-51.936L-11.736,-51.936C-13.257,-51.936 -14.344,-51.237 -14.996,-49.841C-15.449,-48.893 -15.675,-46.916 -15.675,-43.912L-15.675,-20.553C-15.675,-18.471 -15.544,-16.086 -15.281,-13.399C-15.019,-10.711 -14.543,-8.617 -13.855,-7.115C-13.167,-5.613 -12.175,-4.373 -10.88,-3.399C-9.585,-2.424 -7.996,-1.937 -6.112,-1.937C-3.704,-1.937 -1.548,-2.701 0.354,-4.229C2.255,-5.757 3.554,-7.713 4.252,-10.098C4.949,-12.483 5.298,-16.521 5.298,-22.213L5.298,-43.912C5.298,-47.258 5.044,-49.353 4.537,-50.197C3.831,-51.356 2.78,-51.936 1.386,-51.936L0,-51.936Z" style="fill:white;fill-rule:nonzero;"/>
        </g>
        <g transform="matrix(1.06818,0,0,1.06818,153.391,-117.852)">
            <path d="M0,-1.502C0.344,-1.502 0.643,-1.495 0.896,-1.482C1.15,-1.469 1.358,-1.462 1.521,-1.462C5.035,-1.462 7.684,-2.569 9.468,-4.783C11.251,-6.996 12.144,-9.815 12.144,-13.241C12.144,-16.587 11.423,-19.308 9.984,-21.403C8.544,-23.498 6.638,-24.545 4.265,-24.545C3.214,-24.545 1.793,-24.294 0,-23.794L0,-1.502ZM26.162,26.047L16.327,26.047L3.857,0.988C2.934,1.041 2.182,1.067 1.603,1.067C1.367,1.067 1.114,1.061 0.842,1.047C0.57,1.034 0.29,1.015 0,0.988L0,16.56C0,19.934 0.253,22.029 0.761,22.846C1.449,24.005 2.481,24.584 3.857,24.584L5.297,24.584L5.297,26.047L-10.487,26.047L-10.487,24.584L-9.101,24.584C-7.543,24.584 -6.43,23.847 -5.76,22.371C-5.379,21.555 -5.189,19.618 -5.189,16.56L-5.189,-18.063C-5.189,-21.436 -5.443,-23.531 -5.95,-24.348C-6.656,-25.507 -7.707,-26.087 -9.101,-26.087L-10.487,-26.087L-10.487,-27.549L2.934,-27.549C6.846,-27.549 9.73,-27.134 11.586,-26.304C13.443,-25.474 15.019,-23.946 16.313,-21.719C17.608,-19.492 18.256,-16.838 18.256,-13.755C18.256,-10.461 17.518,-7.602 16.042,-5.178C14.565,-2.753 12.279,-1.041 9.182,-0.04L16.789,15.336C18.528,18.867 20.022,21.212 21.271,22.371C22.521,23.531 24.151,24.269 26.162,24.584L26.162,26.047Z" style="fill:white;fill-rule:nonzero;"/>
        </g>
        <g transform="matrix(1.06818,0,0,1.06818,206.637,-88.7201)">
            <path d="M0,-56.047L0,-37.51L-1.005,-37.51C-1.331,-41.067 -1.915,-43.899 -2.757,-46.008C-3.6,-48.115 -4.799,-49.789 -6.357,-51.027C-7.915,-52.266 -9.527,-52.885 -11.193,-52.885C-13.077,-52.885 -14.634,-52.048 -15.865,-50.375C-17.097,-48.702 -17.713,-46.798 -17.713,-44.664C-17.713,-43.03 -17.324,-41.541 -16.544,-40.197C-15.422,-38.221 -12.75,-35.586 -8.53,-32.293C-5.089,-29.605 -2.74,-27.543 -1.48,-26.107C-0.222,-24.671 0.747,-22.978 1.426,-21.028C2.105,-19.077 2.445,-17.036 2.445,-14.901C2.445,-10.843 1.363,-7.345 -0.801,-4.407C-2.966,-1.469 -5.75,0 -9.155,0C-10.224,0 -11.229,-0.119 -12.171,-0.357C-12.732,-0.488 -13.896,-0.969 -15.662,-1.799C-17.428,-2.629 -18.546,-3.044 -19.017,-3.044C-19.47,-3.044 -19.828,-2.846 -20.09,-2.451C-20.353,-2.056 -20.547,-1.238 -20.674,0L-21.679,0L-21.679,-18.38L-20.674,-18.38C-20.203,-14.531 -19.569,-11.653 -18.772,-9.743C-17.976,-7.832 -16.758,-6.245 -15.118,-4.981C-13.479,-3.716 -11.682,-3.083 -9.726,-3.083C-7.462,-3.083 -5.673,-3.953 -4.36,-5.693C-3.047,-7.431 -2.391,-9.486 -2.391,-11.858C-2.391,-13.175 -2.64,-14.506 -3.138,-15.85C-3.636,-17.194 -4.41,-18.445 -5.46,-19.605C-6.167,-20.396 -8.096,-22.075 -11.247,-24.644C-14.398,-27.214 -16.64,-29.262 -17.971,-30.791C-19.302,-32.318 -20.312,-34.005 -21,-35.85C-21.688,-37.694 -22.032,-39.723 -22.032,-41.937C-22.032,-45.783 -21.018,-49.097 -18.99,-51.877C-16.961,-54.657 -14.38,-56.047 -11.247,-56.047C-9.291,-56.047 -7.217,-55.349 -5.026,-53.952C-4.012,-53.293 -3.296,-52.964 -2.879,-52.964C-2.409,-52.964 -2.024,-53.168 -1.725,-53.577C-1.426,-53.985 -1.187,-54.808 -1.005,-56.047L0,-56.047Z" style="fill:white;fill-rule:nonzero;"/>
        </g>
        <g transform="matrix(1.06818,0,0,1.06818,232.199,-91.8016)">
            <path d="M0,-50.277C-3.297,-50.277 -5.941,-48.498 -7.933,-44.941C-10.415,-40.514 -11.655,-34.032 -11.655,-25.495C-11.655,-16.746 -10.369,-10.014 -7.797,-5.297C-5.823,-1.714 -3.215,0.078 0.027,0.078C3.486,0.078 6.343,-1.885 8.598,-5.812C10.853,-9.737 11.98,-15.93 11.98,-24.388C11.98,-33.558 10.74,-40.396 8.259,-44.902C6.266,-48.485 3.513,-50.277 0,-50.277M0.516,-53.162C5.297,-53.162 9.44,-50.52 12.945,-45.237C16.45,-39.954 18.202,-33.36 18.202,-25.455C18.202,-17.313 16.436,-10.554 12.904,-5.179C9.373,0.196 5.098,2.885 0.082,2.885C-4.99,2.885 -9.25,0.263 -12.701,-4.982C-16.151,-10.225 -17.876,-17.01 -17.876,-25.337C-17.876,-33.847 -15.884,-40.791 -11.899,-46.166C-8.44,-50.83 -4.302,-53.162 0.516,-53.162" style="fill:white;fill-rule:nonzero;"/>
        </g>
        <g transform="matrix(1.06818,0,0,1.06818,279.757,-88.7201)">
            <path d="M0,-56.047L0,-37.51L-1.005,-37.51C-1.331,-41.067 -1.915,-43.899 -2.757,-46.008C-3.6,-48.115 -4.799,-49.789 -6.357,-51.027C-7.915,-52.266 -9.527,-52.885 -11.193,-52.885C-13.077,-52.885 -14.634,-52.048 -15.865,-50.375C-17.097,-48.702 -17.713,-46.798 -17.713,-44.664C-17.713,-43.03 -17.324,-41.541 -16.544,-40.197C-15.422,-38.221 -12.75,-35.586 -8.53,-32.293C-5.089,-29.605 -2.74,-27.543 -1.48,-26.107C-0.222,-24.671 0.747,-22.978 1.426,-21.028C2.105,-19.077 2.445,-17.036 2.445,-14.901C2.445,-10.843 1.363,-7.345 -0.801,-4.407C-2.966,-1.469 -5.75,0 -9.155,0C-10.224,0 -11.229,-0.119 -12.171,-0.357C-12.732,-0.488 -13.896,-0.969 -15.662,-1.799C-17.428,-2.629 -18.546,-3.044 -19.017,-3.044C-19.47,-3.044 -19.828,-2.846 -20.09,-2.451C-20.353,-2.056 -20.547,-1.238 -20.674,0L-21.679,0L-21.679,-18.38L-20.674,-18.38C-20.203,-14.531 -19.569,-11.653 -18.772,-9.743C-17.976,-7.832 -16.758,-6.245 -15.118,-4.981C-13.479,-3.716 -11.682,-3.083 -9.726,-3.083C-7.462,-3.083 -5.673,-3.953 -4.36,-5.693C-3.047,-7.431 -2.391,-9.486 -2.391,-11.858C-2.391,-13.175 -2.64,-14.506 -3.138,-15.85C-3.636,-17.194 -4.41,-18.445 -5.46,-19.605C-6.167,-20.396 -8.096,-22.075 -11.247,-24.644C-14.398,-27.214 -16.64,-29.262 -17.971,-30.791C-19.302,-32.318 -20.312,-34.005 -21,-35.85C-21.688,-37.694 -22.032,-39.723 -22.032,-41.937C-22.032,-45.783 -21.018,-49.097 -18.99,-51.877C-16.961,-54.657 -14.38,-56.047 -11.247,-56.047C-9.291,-56.047 -7.217,-55.349 -5.026,-53.952C-4.012,-53.293 -3.296,-52.964 -2.879,-52.964C-2.409,-52.964 -2.024,-53.168 -1.725,-53.577C-1.426,-53.985 -1.187,-54.808 -1.005,-56.047L0,-56.047Z" style="fill:white;fill-rule:nonzero;"/>
        </g>
        <g transform="matrix(1.06818,0,0,1.06818,312.61,-122.731)">
            <path d="M0,-4.77L21.076,-4.77L21.076,-23.654C21.076,-27.029 20.93,-29.251 20.641,-30.322C20.418,-31.133 19.949,-31.831 19.236,-32.416C18.275,-33.194 17.262,-33.583 16.191,-33.583L14.586,-33.583L14.586,-35.384L33.988,-35.384L33.988,-33.583L32.383,-33.583C31.312,-33.583 30.297,-33.21 29.338,-32.464C28.625,-31.944 28.139,-31.157 27.883,-30.103C27.627,-29.049 27.498,-26.898 27.498,-23.654L27.498,18.934C27.498,22.275 27.643,24.481 27.934,25.553C28.156,26.364 28.613,27.062 29.305,27.646C30.285,28.424 31.312,28.813 32.383,28.813L33.988,28.813L33.988,30.614L14.586,30.614L14.586,28.813L16.191,28.813C18.043,28.813 19.391,28.019 20.238,26.429C20.797,25.391 21.076,22.893 21.076,18.934L21.076,-1.168L0,-1.168L0,18.934C0,22.275 0.145,24.481 0.434,25.553C0.656,26.364 1.125,27.062 1.84,27.646C2.799,28.424 3.813,28.813 4.883,28.813L6.523,28.813L6.523,30.614L-12.914,30.614L-12.914,28.813L-11.308,28.813C-9.435,28.813 -8.074,28.019 -7.227,26.429C-6.691,25.391 -6.424,22.893 -6.424,18.934L-6.424,-23.654C-6.424,-27.029 -6.568,-29.251 -6.858,-30.322C-7.082,-31.133 -7.539,-31.831 -8.23,-32.416C-9.212,-33.194 -10.237,-33.583 -11.308,-33.583L-12.914,-33.583L-12.914,-35.384L6.523,-35.384L6.523,-33.583L4.883,-33.583C3.813,-33.583 2.799,-33.21 1.84,-32.464C1.148,-31.944 0.668,-31.157 0.4,-30.103C0.133,-29.049 0,-26.898 0,-23.654L0,-4.77Z" style="fill:white;fill-rule:nonzero;"/>
        </g>
        <g transform="matrix(1.06818,0,0,1.06818,377.012,-90.2407)">
            <path d="M0,-51.936L0,-53.398L13.04,-53.398L13.04,-51.936L11.655,-51.936C10.206,-51.936 9.092,-51.053 8.313,-49.288C7.933,-48.471 7.743,-46.573 7.743,-43.596L7.743,-21.857C7.743,-16.482 7.376,-12.312 6.643,-9.347C5.909,-6.383 4.469,-3.84 2.323,-1.719C0.177,0.402 -2.743,1.462 -6.438,1.462C-10.459,1.462 -13.511,0.448 -15.594,-1.581C-17.677,-3.61 -19.152,-6.336 -20.021,-9.762C-20.602,-12.108 -20.892,-16.508 -20.892,-22.964L-20.892,-43.912C-20.892,-47.206 -21.204,-49.367 -21.828,-50.394C-22.453,-51.422 -23.463,-51.936 -24.857,-51.936L-26.243,-51.936L-26.243,-53.398L-10.323,-53.398L-10.323,-51.936L-11.736,-51.936C-13.257,-51.936 -14.344,-51.237 -14.996,-49.841C-15.449,-48.893 -15.675,-46.916 -15.675,-43.912L-15.675,-20.553C-15.675,-18.471 -15.544,-16.086 -15.281,-13.399C-15.019,-10.711 -14.544,-8.617 -13.854,-7.115C-13.167,-5.613 -12.175,-4.373 -10.88,-3.399C-9.586,-2.424 -7.996,-1.937 -6.112,-1.937C-3.704,-1.937 -1.548,-2.701 0.354,-4.229C2.255,-5.757 3.555,-7.713 4.252,-10.098C4.949,-12.483 5.298,-16.521 5.298,-22.213L5.298,-43.912C5.298,-47.258 5.044,-49.353 4.537,-50.197C3.831,-51.356 2.78,-51.936 1.386,-51.936L0,-51.936Z" style="fill:white;fill-rule:nonzero;"/>
        </g>
        <g transform="matrix(1.06818,0,0,1.06818,414.471,-147.279)">
            <path d="M0,53.596L-14.235,8.498L-14.235,44.308C-14.235,47.602 -13.99,49.658 -13.502,50.474C-12.832,51.58 -11.772,52.133 -10.323,52.133L-9.02,52.133L-9.02,53.596L-21.842,53.596L-21.842,52.133L-20.538,52.133C-18.98,52.133 -17.876,51.449 -17.224,50.078C-16.825,49.236 -16.626,47.312 -16.626,44.308L-16.626,9.288C-16.626,6.917 -16.807,5.204 -17.169,4.15C-17.423,3.386 -17.889,2.747 -18.568,2.233C-19.247,1.719 -20.339,1.462 -21.842,1.462L-21.842,0L-11.41,0L1.956,41.936L15.105,0L25.537,0L25.537,1.462L24.261,1.462C22.685,1.462 21.571,2.148 20.919,3.518C20.521,4.361 20.321,6.284 20.321,9.288L20.321,44.308C20.321,47.602 20.575,49.658 21.082,50.474C21.752,51.58 22.812,52.133 24.261,52.133L25.537,52.133L25.537,53.596L9.89,53.596L9.89,52.133L11.193,52.133C12.769,52.133 13.873,51.449 14.508,50.078C14.905,49.236 15.105,47.312 15.105,44.308L15.105,8.498L0.896,53.596L0,53.596Z" style="fill:white;fill-rule:nonzero;"/>
        </g>
        <g transform="matrix(1.06818,0,0,1.06818,467.949,-126.296)">
            <path d="M0,13.083L-6.249,-8.577L-12.66,13.083L0,13.083ZM0.76,16.008L-13.503,16.008L-16.002,24.466C-16.618,26.548 -16.926,28.103 -16.926,29.13C-16.926,29.947 -16.658,30.665 -16.124,31.284C-15.59,31.903 -14.436,32.306 -12.66,32.489L-12.66,33.952L-24.261,33.952L-24.261,32.489C-22.722,32.095 -21.726,31.581 -21.272,30.948C-20.349,29.684 -19.325,27.114 -18.202,23.241L-5.244,-20.869L-4.293,-20.869L8.53,23.715C9.563,27.299 10.5,29.624 11.342,30.691C12.184,31.759 13.356,32.358 14.86,32.489L14.86,33.952L0.325,33.952L0.325,32.489C1.793,32.385 2.784,32.029 3.301,31.423C3.816,30.816 4.074,30.079 4.074,29.209C4.074,28.05 3.712,26.219 2.988,23.715L0.76,16.008Z" style="fill:white;fill-rule:nonzero;"/>
        </g>
        <g transform="matrix(1.06818,0,0,1.06818,482.28,-89.1013)">
            <path d="M0,-54.465L9.997,-54.465L32.519,-14.268L32.519,-45.176C32.519,-48.47 32.265,-50.526 31.758,-51.342C31.088,-52.449 30.028,-53.003 28.58,-53.003L27.303,-53.003L27.303,-54.465L40.126,-54.465L40.126,-53.003L38.821,-53.003C37.264,-53.003 36.159,-52.317 35.507,-50.947C35.108,-50.104 34.909,-48.18 34.909,-45.176L34.909,0L33.932,0L9.645,-43.161L9.645,-10.157C9.645,-6.863 9.889,-4.807 10.378,-3.991C11.065,-2.884 12.125,-2.332 13.557,-2.332L14.86,-2.332L14.86,-0.869L2.037,-0.869L2.037,-2.332L3.314,-2.332C4.89,-2.332 6.004,-3.016 6.656,-4.386C7.054,-5.229 7.254,-7.153 7.254,-10.157L7.254,-47.429C6.185,-49.248 5.374,-50.446 4.822,-51.026C4.27,-51.606 3.459,-52.146 2.391,-52.647C1.865,-52.884 1.068,-53.003 0,-53.003L0,-54.465Z" style="fill:white;fill-rule:nonzero;"/>
        </g>
        <g transform="matrix(1.06818,0,0,1.06818,545.741,-91.8016)">
            <path d="M0,-50.277C-3.297,-50.277 -5.94,-48.498 -7.933,-44.941C-10.414,-40.514 -11.654,-34.032 -11.654,-25.495C-11.654,-16.746 -10.369,-10.014 -7.797,-5.297C-5.823,-1.714 -3.215,0.078 0.027,0.078C3.486,0.078 6.344,-1.885 8.599,-5.812C10.854,-9.737 11.98,-15.93 11.98,-24.388C11.98,-33.558 10.74,-40.396 8.259,-44.902C6.267,-48.485 3.514,-50.277 0,-50.277M0.516,-53.162C5.298,-53.162 9.44,-50.52 12.945,-45.237C16.449,-39.954 18.202,-33.36 18.202,-25.455C18.202,-17.313 16.436,-10.554 12.904,-5.179C9.372,0.196 5.098,2.885 0.081,2.885C-4.99,2.885 -9.25,0.263 -12.7,-4.982C-16.151,-10.225 -17.876,-17.01 -17.876,-25.337C-17.876,-33.847 -15.884,-40.791 -11.899,-46.166C-8.44,-50.83 -4.302,-53.162 0.516,-53.162" style="fill:white;fill-rule:nonzero;"/>
        </g>
        <g transform="matrix(1.06818,0,0,1.06818,593.299,-88.7201)">
            <path d="M0,-56.047L0,-37.51L-1.005,-37.51C-1.331,-41.067 -1.915,-43.899 -2.758,-46.008C-3.6,-48.115 -4.8,-49.789 -6.357,-51.027C-7.915,-52.266 -9.526,-52.885 -11.192,-52.885C-13.076,-52.885 -14.634,-52.048 -15.865,-50.375C-17.098,-48.702 -17.713,-46.798 -17.713,-44.664C-17.713,-43.03 -17.323,-41.541 -16.545,-40.197C-15.422,-38.221 -12.751,-35.586 -8.53,-32.293C-5.09,-29.605 -2.739,-27.543 -1.48,-26.107C-0.222,-24.671 0.747,-22.978 1.427,-21.028C2.105,-19.077 2.445,-17.036 2.445,-14.901C2.445,-10.843 1.362,-7.345 -0.802,-4.407C-2.966,-1.469 -5.75,0 -9.155,0C-10.224,0 -11.229,-0.119 -12.171,-0.357C-12.732,-0.488 -13.896,-0.969 -15.662,-1.799C-17.428,-2.629 -18.546,-3.044 -19.017,-3.044C-19.47,-3.044 -19.827,-2.846 -20.09,-2.451C-20.353,-2.056 -20.548,-1.238 -20.674,0L-21.68,0L-21.68,-18.38L-20.674,-18.38C-20.203,-14.531 -19.569,-11.653 -18.772,-9.743C-17.976,-7.832 -16.758,-6.245 -15.118,-4.981C-13.479,-3.716 -11.682,-3.083 -9.726,-3.083C-7.462,-3.083 -5.674,-3.953 -4.36,-5.693C-3.047,-7.431 -2.391,-9.486 -2.391,-11.858C-2.391,-13.175 -2.64,-14.506 -3.138,-15.85C-3.636,-17.194 -4.41,-18.445 -5.461,-19.605C-6.167,-20.396 -8.096,-22.075 -11.247,-24.644C-14.398,-27.214 -16.64,-29.262 -17.971,-30.791C-19.302,-32.318 -20.312,-34.005 -21,-35.85C-21.688,-37.694 -22.032,-39.723 -22.032,-41.937C-22.032,-45.783 -21.019,-49.097 -18.989,-51.877C-16.962,-54.657 -14.381,-56.047 -11.247,-56.047C-9.291,-56.047 -7.218,-55.349 -5.025,-53.952C-4.012,-53.293 -3.297,-52.964 -2.88,-52.964C-2.409,-52.964 -2.023,-53.168 -1.725,-53.577C-1.426,-53.985 -1.187,-54.808 -1.005,-56.047L0,-56.047Z" style="fill:white;fill-rule:nonzero;"/>
        </g>
        <g transform="matrix(1.06818,0,0,1.06818,-9.17317,-226.432)">
            <path d="M0,42.28C2.121,42.961 3.9,43.301 5.336,43.301C9.211,43.301 12.426,41.32 14.981,37.36C17.537,33.399 18.814,28.029 18.814,21.249C18.814,14.422 17.537,9.039 14.981,5.103C12.426,1.167 9.144,-0.802 5.136,-0.802C3.633,-0.802 1.92,-0.449 0,0.255L0,42.28ZM-9.695,45.852L-9.695,44.503L-8.417,44.503C-6.981,44.503 -5.962,43.835 -5.361,42.499C-4.994,41.697 -4.81,39.899 -4.81,37.104L-4.81,5.176C-4.81,2.09 -5.044,0.158 -5.511,-0.619C-6.163,-1.688 -7.131,-2.223 -8.417,-2.223L-9.695,-2.223L-9.695,-3.572L4.134,-3.572C9.211,-3.572 13.073,-2.734 15.72,-1.057C18.367,0.62 20.497,3.414 22.108,7.326C23.72,11.238 24.526,15.758 24.526,20.885C24.526,27.761 23.089,33.509 20.217,38.125C16.994,43.277 12.083,45.852 5.487,45.852L-9.695,45.852Z" style="fill:white;fill-rule:nonzero;"/>
        </g>
        <g transform="matrix(1.06818,0,0,1.06818,31.5312,-219.157)">
            <path d="M0,37.946L0,39.041L-11.82,39.041L-11.82,37.946L-10.843,37.946C-9.704,37.946 -8.877,37.463 -8.361,36.496C-8.036,35.864 -7.873,34.345 -7.873,31.938L-7.873,6.009C-7.873,3.977 -7.961,2.635 -8.138,1.984C-8.273,1.49 -8.551,1.066 -8.972,0.711C-9.569,0.238 -10.192,0.001 -10.843,0.001L-11.82,0.001L-11.82,-1.095L0,-1.095L0,0.001L-0.997,0.001C-2.123,0.001 -2.943,0.484 -3.458,1.451C-3.797,2.083 -3.967,3.602 -3.967,6.009L-3.967,31.938C-3.967,33.97 -3.879,35.312 -3.703,35.963C-3.567,36.456 -3.282,36.881 -2.848,37.236C-2.265,37.709 -1.648,37.946 -0.997,37.946L0,37.946Z" style="fill:white;fill-rule:nonzero;"/>
        </g>
        <g transform="matrix(1.06818,0,0,1.06818,40.6984,-198.289)">
            <path d="M0,-1.125C0.257,-1.125 0.481,-1.12 0.671,-1.11C0.861,-1.1 1.017,-1.095 1.139,-1.095C3.771,-1.095 5.754,-1.924 7.09,-3.582C8.426,-5.239 9.094,-7.351 9.094,-9.916C9.094,-12.421 8.555,-14.459 7.477,-16.028C6.398,-17.597 4.971,-18.381 3.194,-18.381C2.407,-18.381 1.343,-18.193 0,-17.819L0,-1.125ZM19.591,19.505L12.227,19.505L2.889,0.74C2.197,0.78 1.634,0.799 1.2,0.799C1.024,0.799 0.834,0.794 0.631,0.784C0.427,0.774 0.217,0.76 0,0.74L0,12.402C0,14.928 0.19,16.497 0.57,17.108C1.085,17.977 1.858,18.41 2.889,18.41L3.967,18.41L3.967,19.505L-7.853,19.505L-7.853,18.41L-6.815,18.41C-5.649,18.41 -4.815,17.858 -4.313,16.753C-4.028,16.141 -3.886,14.691 -3.886,12.402L-3.886,-13.527C-3.886,-16.052 -4.076,-17.621 -4.456,-18.233C-4.984,-19.101 -5.771,-19.535 -6.815,-19.535L-7.853,-19.535L-7.853,-20.63L2.197,-20.63C5.127,-20.63 7.287,-20.32 8.677,-19.698C10.067,-19.077 11.247,-17.932 12.217,-16.265C13.186,-14.597 13.671,-12.609 13.671,-10.301C13.671,-7.833 13.119,-5.693 12.013,-3.877C10.908,-2.062 9.196,-0.779 6.876,-0.03L12.573,11.484C13.875,14.128 14.994,15.885 15.93,16.753C16.865,17.621 18.086,18.173 19.591,18.41L19.591,19.505Z" style="fill:white;fill-rule:nonzero;"/>
        </g>
        <g transform="matrix(1.06818,0,0,1.06818,69.4677,-179.793)">
            <path d="M0,-35.756L0,-19.891L6.062,-19.891C7.636,-19.891 8.687,-20.236 9.216,-20.927C9.921,-21.834 10.314,-23.433 10.396,-25.722L11.148,-25.722L11.148,-11.751L10.396,-11.751C10.206,-13.705 10.016,-14.958 9.826,-15.51C9.582,-16.201 9.182,-16.743 8.626,-17.138C8.069,-17.533 7.215,-17.73 6.062,-17.73L0,-17.73L0,-4.5C0,-2.724 0.054,-1.643 0.163,-1.258C0.271,-0.874 0.461,-0.568 0.732,-0.341C1.003,-0.114 1.519,-0.001 2.278,-0.001L6.958,-0.001C8.517,-0.001 9.65,-0.158 10.355,-0.474C11.06,-0.79 11.738,-1.411 12.39,-2.339C13.23,-3.562 14.091,-5.407 14.973,-7.874L15.787,-7.874L13.407,2.19L-7.853,2.19L-7.853,1.095L-6.876,1.095C-6.226,1.095 -5.608,0.868 -5.025,0.414C-4.591,0.098 -4.296,-0.375 -4.14,-1.007C-3.984,-1.638 -3.906,-2.931 -3.906,-4.884L-3.906,-30.961C-3.906,-33.506 -4.083,-35.075 -4.435,-35.667C-4.923,-36.456 -5.737,-36.851 -6.876,-36.851L-7.853,-36.851L-7.853,-37.946L13.407,-37.946L13.712,-29.155L12.918,-29.155C12.634,-31.266 12.318,-32.717 11.973,-33.506C11.626,-34.295 11.114,-34.898 10.437,-35.312C9.894,-35.608 8.938,-35.756 7.568,-35.756L0,-35.756Z" style="fill:white;fill-rule:nonzero;"/>
        </g>
        <g transform="matrix(1.06818,0,0,1.06818,113.079,-176.474)">
            <path d="M0,-41.971L0.631,-28.326L0,-28.326C-0.841,-32.411 -2.042,-35.351 -3.601,-37.147C-5.161,-38.942 -7.032,-39.84 -9.216,-39.84C-11.047,-39.84 -12.702,-39.164 -14.18,-37.813C-15.658,-36.461 -16.821,-34.305 -17.669,-31.346C-18.517,-28.386 -18.94,-24.705 -18.94,-20.305C-18.94,-16.674 -18.541,-13.527 -17.74,-10.863C-16.94,-8.199 -15.736,-6.157 -14.129,-4.736C-12.522,-3.315 -10.688,-2.605 -8.626,-2.605C-6.835,-2.605 -5.256,-3.162 -3.886,-4.277C-2.516,-5.392 -1.011,-7.607 0.631,-10.922L1.261,-10.33C-0.122,-6.759 -1.736,-4.144 -3.581,-2.487C-5.425,-0.829 -7.616,0 -10.152,0C-14.723,0 -18.263,-2.467 -20.771,-7.4C-22.643,-11.07 -23.579,-15.391 -23.579,-20.364C-23.579,-24.37 -22.962,-28.05 -21.728,-31.405C-20.494,-34.759 -18.795,-37.358 -16.631,-39.204C-14.468,-41.049 -12.105,-41.971 -9.542,-41.971C-7.548,-41.971 -5.582,-41.261 -3.642,-39.84C-3.072,-39.406 -2.665,-39.189 -2.421,-39.189C-2.055,-39.189 -1.736,-39.376 -1.465,-39.751C-1.112,-40.284 -0.861,-41.024 -0.712,-41.971L0,-41.971Z" style="fill:white;fill-rule:nonzero;"/>
        </g>
        <g transform="matrix(1.06818,0,0,1.06818,141.695,-176.474)">
            <path d="M0,-41.971L0.631,-28.326L0,-28.326C-0.841,-32.411 -2.042,-35.351 -3.601,-37.147C-5.161,-38.942 -7.032,-39.84 -9.216,-39.84C-11.047,-39.84 -12.702,-39.164 -14.18,-37.813C-15.658,-36.461 -16.821,-34.305 -17.669,-31.346C-18.517,-28.386 -18.94,-24.705 -18.94,-20.305C-18.94,-16.674 -18.541,-13.527 -17.74,-10.863C-16.94,-8.199 -15.736,-6.157 -14.129,-4.736C-12.522,-3.315 -10.688,-2.605 -8.626,-2.605C-6.835,-2.605 -5.256,-3.162 -3.886,-4.277C-2.516,-5.392 -1.011,-7.607 0.631,-10.922L1.261,-10.33C-0.122,-6.759 -1.736,-4.144 -3.581,-2.487C-5.425,-0.829 -7.616,0 -10.152,0C-14.723,0 -18.263,-2.467 -20.771,-7.4C-22.643,-11.07 -23.579,-15.391 -23.579,-20.364C-23.579,-24.37 -22.962,-28.05 -21.728,-31.405C-20.494,-34.759 -18.795,-37.358 -16.631,-39.204C-14.468,-41.049 -12.105,-41.971 -9.542,-41.971C-7.548,-41.971 -5.582,-41.261 -3.642,-39.84C-3.072,-39.406 -2.665,-39.189 -2.421,-39.189C-2.055,-39.189 -1.736,-39.376 -1.465,-39.751C-1.112,-40.284 -0.861,-41.024 -0.712,-41.971L0,-41.971Z" style="fill:white;fill-rule:nonzero;"/>
        </g>
        <g transform="matrix(1.06818,0,0,1.06818,157.252,-219.157)">
            <path d="M0,37.946L0,39.041L-11.82,39.041L-11.82,37.946L-10.843,37.946C-9.704,37.946 -8.877,37.463 -8.361,36.496C-8.036,35.864 -7.873,34.345 -7.873,31.938L-7.873,6.009C-7.873,3.977 -7.961,2.635 -8.138,1.984C-8.273,1.49 -8.551,1.066 -8.972,0.711C-9.569,0.238 -10.192,0.001 -10.843,0.001L-11.82,0.001L-11.82,-1.095L0,-1.095L0,0.001L-0.997,0.001C-2.123,0.001 -2.943,0.484 -3.458,1.451C-3.797,2.083 -3.967,3.602 -3.967,6.009L-3.967,31.938C-3.967,33.97 -3.879,35.312 -3.703,35.963C-3.567,36.456 -3.282,36.881 -2.848,37.236C-2.265,37.709 -1.648,37.946 -0.997,37.946L0,37.946Z" style="fill:white;fill-rule:nonzero;"/>
        </g>
        <g transform="matrix(1.06818,0,0,1.06818,173.134,-178.782)">
            <path d="M0,-37.649C-2.469,-37.649 -4.449,-36.317 -5.941,-33.653C-7.799,-30.338 -8.728,-25.484 -8.728,-19.091C-8.728,-12.539 -7.765,-7.498 -5.839,-3.966C-4.361,-1.282 -2.408,0.059 0.02,0.059C2.61,0.059 4.75,-1.41 6.439,-4.351C8.127,-7.291 8.972,-11.928 8.972,-18.262C8.972,-25.129 8.042,-30.25 6.185,-33.624C4.692,-36.307 2.631,-37.649 0,-37.649M0.386,-39.81C3.967,-39.81 7.069,-37.832 9.694,-33.876C12.318,-29.919 13.63,-24.981 13.63,-19.061C13.63,-12.964 12.308,-7.902 9.663,-3.877C7.019,0.148 3.817,2.161 0.061,2.161C-3.737,2.161 -6.927,0.198 -9.511,-3.729C-12.095,-7.655 -13.387,-12.737 -13.387,-18.972C-13.387,-25.346 -11.895,-30.545 -8.911,-34.571C-6.321,-38.064 -3.222,-39.81 0.386,-39.81" style="fill:white;fill-rule:nonzero;"/>
        </g>
        <g transform="matrix(1.06818,0,0,1.06818,187.756,-176.758)">
            <path d="M0,-40.787L7.487,-40.787L24.352,-10.685L24.352,-33.831C24.352,-36.298 24.162,-37.837 23.783,-38.449C23.281,-39.278 22.487,-39.692 21.402,-39.692L20.446,-39.692L20.446,-40.787L30.048,-40.787L30.048,-39.692L29.072,-39.692C27.905,-39.692 27.078,-39.179 26.59,-38.153C26.292,-37.521 26.143,-36.081 26.143,-33.831L26.143,0L25.41,0L7.222,-32.322L7.222,-7.607C7.222,-5.14 7.405,-3.601 7.771,-2.99C8.287,-2.161 9.08,-1.746 10.152,-1.746L11.128,-1.746L11.128,-0.651L1.526,-0.651L1.526,-1.746L2.482,-1.746C3.662,-1.746 4.496,-2.259 4.984,-3.286C5.283,-3.917 5.432,-5.357 5.432,-7.607L5.432,-35.518C4.631,-36.88 4.025,-37.778 3.611,-38.212C3.197,-38.646 2.59,-39.051 1.791,-39.426C1.397,-39.603 0.8,-39.692 0,-39.692L0,-40.787Z" style="fill:white;fill-rule:nonzero;"/>
        </g>
        <g transform="matrix(1.06818,0,0,1.06818,262.469,-176.247)">
            <path d="M0,-51.683L0.777,-34.881L0,-34.881C-1.036,-39.911 -2.514,-43.531 -4.434,-45.742C-6.355,-47.953 -8.66,-49.059 -11.349,-49.059C-13.603,-49.059 -15.641,-48.226 -17.461,-46.562C-19.282,-44.897 -20.714,-42.243 -21.758,-38.599C-22.802,-34.954 -23.323,-30.421 -23.323,-25.003C-23.323,-20.532 -22.831,-16.657 -21.845,-13.376C-20.86,-10.096 -19.378,-7.581 -17.398,-5.831C-15.419,-4.082 -13.161,-3.207 -10.622,-3.207C-8.417,-3.207 -6.472,-3.893 -4.785,-5.266C-3.098,-6.639 -1.244,-9.367 0.777,-13.449L1.553,-12.72C-0.15,-8.322 -2.138,-5.102 -4.409,-3.061C-6.681,-1.02 -9.378,0 -12.501,0C-18.129,0 -22.488,-3.037 -25.578,-9.112C-27.883,-13.631 -29.035,-18.953 -29.035,-25.076C-29.035,-30.009 -28.275,-34.54 -26.755,-38.671C-25.236,-42.802 -23.144,-46.003 -20.48,-48.275C-17.816,-50.547 -14.906,-51.683 -11.75,-51.683C-9.294,-51.683 -6.873,-50.808 -4.484,-49.059C-3.783,-48.524 -3.282,-48.257 -2.981,-48.257C-2.53,-48.257 -2.138,-48.488 -1.804,-48.95C-1.37,-49.606 -1.061,-50.517 -0.877,-51.683L0,-51.683Z" style="fill:white;fill-rule:nonzero;"/>
        </g>
        <g transform="matrix(1.06818,0,0,1.06818,280.576,-178.782)">
            <path d="M0,-37.649C-2.469,-37.649 -4.449,-36.317 -5.941,-33.653C-7.799,-30.338 -8.728,-25.484 -8.728,-19.091C-8.728,-12.539 -7.765,-7.498 -5.839,-3.966C-4.361,-1.282 -2.408,0.059 0.02,0.059C2.61,0.059 4.75,-1.41 6.439,-4.351C8.127,-7.291 8.972,-11.928 8.972,-18.262C8.972,-25.129 8.042,-30.25 6.185,-33.624C4.692,-36.307 2.631,-37.649 0,-37.649M0.386,-39.81C3.967,-39.81 7.069,-37.832 9.694,-33.876C12.318,-29.919 13.63,-24.981 13.63,-19.061C13.63,-12.964 12.308,-7.902 9.663,-3.877C7.019,0.148 3.817,2.161 0.061,2.161C-3.737,2.161 -6.927,0.198 -9.511,-3.729C-12.095,-7.655 -13.387,-12.737 -13.387,-18.972C-13.387,-25.346 -11.895,-30.545 -8.911,-34.571C-6.321,-38.064 -3.222,-39.81 0.386,-39.81" style="fill:white;fill-rule:nonzero;"/>
        </g>
        <g transform="matrix(1.06818,0,0,1.06818,304.933,-198.289)">
            <path d="M0,-1.125C0.257,-1.125 0.481,-1.12 0.671,-1.11C0.861,-1.1 1.017,-1.095 1.139,-1.095C3.77,-1.095 5.754,-1.924 7.09,-3.582C8.425,-5.239 9.094,-7.351 9.094,-9.916C9.094,-12.421 8.555,-14.459 7.476,-16.028C6.398,-17.597 4.97,-18.381 3.194,-18.381C2.408,-18.381 1.343,-18.193 0,-17.819L0,-1.125ZM19.591,19.505L12.227,19.505L2.889,0.74C2.197,0.78 1.634,0.799 1.201,0.799C1.024,0.799 0.833,0.794 0.63,0.784C0.427,0.774 0.217,0.76 0,0.74L0,12.402C0,14.928 0.19,16.497 0.57,17.108C1.085,17.977 1.858,18.41 2.889,18.41L3.967,18.41L3.967,19.505L-7.853,19.505L-7.853,18.41L-6.815,18.41C-5.649,18.41 -4.815,17.858 -4.313,16.753C-4.028,16.141 -3.886,14.691 -3.886,12.402L-3.886,-13.527C-3.886,-16.052 -4.076,-17.621 -4.456,-18.233C-4.984,-19.101 -5.771,-19.535 -6.815,-19.535L-7.853,-19.535L-7.853,-20.63L2.197,-20.63C5.126,-20.63 7.287,-20.32 8.677,-19.698C10.067,-19.077 11.247,-17.932 12.216,-16.265C13.186,-14.597 13.671,-12.609 13.671,-10.301C13.671,-7.833 13.119,-5.693 12.013,-3.877C10.908,-2.062 9.196,-0.779 6.876,-0.03L12.573,11.484C13.875,14.128 14.994,15.885 15.929,16.753C16.866,17.621 18.086,18.173 19.591,18.41L19.591,19.505Z" style="fill:white;fill-rule:nonzero;"/>
        </g>
        <g transform="matrix(1.06818,0,0,1.06818,333.529,-198.447)">
            <path d="M0,-0.829C0.719,-0.631 1.355,-0.483 1.912,-0.385C2.468,-0.286 2.942,-0.237 3.336,-0.237C4.746,-0.237 5.964,-1.031 6.988,-2.62C8.012,-4.208 8.524,-6.265 8.524,-8.791C8.524,-10.527 8.28,-12.14 7.792,-13.63C7.304,-15.12 6.611,-16.235 5.717,-16.975C4.821,-17.715 3.804,-18.085 2.665,-18.085C1.973,-18.085 1.085,-17.897 0,-17.522L0,-0.829ZM0,0.858L0,12.55C0,15.076 0.189,16.645 0.569,17.256C1.085,18.125 1.864,18.558 2.909,18.558L3.967,18.558L3.967,19.653L-7.854,19.653L-7.854,18.558L-6.815,18.558C-5.649,18.558 -4.815,18.006 -4.313,16.901C-4.042,16.289 -3.906,14.839 -3.906,12.55L-3.906,-13.379C-3.906,-15.904 -4.09,-17.473 -4.456,-18.085C-4.984,-18.953 -5.771,-19.387 -6.815,-19.387L-7.854,-19.387L-7.854,-20.482L2.258,-20.482C4.727,-20.482 6.673,-20.113 8.097,-19.372C9.521,-18.633 10.721,-17.384 11.697,-15.628C12.674,-13.872 13.162,-11.79 13.162,-9.383C13.162,-6.107 12.42,-3.443 10.935,-1.391C9.449,0.661 7.351,1.687 4.638,1.687C3.974,1.687 3.255,1.618 2.481,1.48C1.709,1.342 0.881,1.135 0,0.858" style="fill:white;fill-rule:nonzero;"/>
        </g>
        <g transform="matrix(1.06818,0,0,1.06818,363.949,-178.782)">
            <path d="M0,-37.649C-2.469,-37.649 -4.449,-36.317 -5.94,-33.653C-7.799,-30.338 -8.728,-25.484 -8.728,-19.091C-8.728,-12.539 -7.765,-7.498 -5.839,-3.966C-4.361,-1.282 -2.408,0.059 0.021,0.059C2.61,0.059 4.75,-1.41 6.438,-4.351C8.127,-7.291 8.972,-11.928 8.972,-18.262C8.972,-25.129 8.042,-30.25 6.185,-33.624C4.692,-36.307 2.631,-37.649 0,-37.649M0.387,-39.81C3.967,-39.81 7.069,-37.832 9.693,-33.876C12.318,-29.919 13.631,-24.981 13.631,-19.061C13.631,-12.964 12.308,-7.902 9.663,-3.877C7.019,0.148 3.817,2.161 0.061,2.161C-3.737,2.161 -6.928,0.198 -9.511,-3.729C-12.095,-7.655 -13.387,-12.737 -13.387,-18.972C-13.387,-25.346 -11.895,-30.545 -8.911,-34.571C-6.32,-38.064 -3.222,-39.81 0.387,-39.81" style="fill:white;fill-rule:nonzero;"/>
        </g>
        <g transform="matrix(1.06818,0,0,1.06818,388.306,-198.289)">
            <path d="M0,-1.125C0.258,-1.125 0.481,-1.12 0.672,-1.11C0.861,-1.1 1.018,-1.095 1.14,-1.095C3.771,-1.095 5.755,-1.924 7.091,-3.582C8.426,-5.239 9.095,-7.351 9.095,-9.916C9.095,-12.421 8.556,-14.459 7.477,-16.028C6.398,-17.597 4.971,-18.381 3.194,-18.381C2.408,-18.381 1.343,-18.193 0,-17.819L0,-1.125ZM19.592,19.505L12.228,19.505L2.89,0.74C2.197,0.78 1.635,0.799 1.201,0.799C1.024,0.799 0.835,0.794 0.631,0.784C0.428,0.774 0.217,0.76 0,0.74L0,12.402C0,14.928 0.19,16.497 0.57,17.108C1.085,17.977 1.858,18.41 2.89,18.41L3.968,18.41L3.968,19.505L-7.853,19.505L-7.853,18.41L-6.814,18.41C-5.648,18.41 -4.814,17.858 -4.312,16.753C-4.027,16.141 -3.886,14.691 -3.886,12.402L-3.886,-13.527C-3.886,-16.052 -4.075,-17.621 -4.455,-18.233C-4.983,-19.101 -5.771,-19.535 -6.814,-19.535L-7.853,-19.535L-7.853,-20.63L2.197,-20.63C5.127,-20.63 7.287,-20.32 8.678,-19.698C10.067,-19.077 11.247,-17.932 12.217,-16.265C13.187,-14.597 13.672,-12.609 13.672,-10.301C13.672,-7.833 13.119,-5.693 12.014,-3.877C10.908,-2.062 9.196,-0.779 6.877,-0.03L12.573,11.484C13.875,14.128 14.994,15.885 15.93,16.753C16.866,17.621 18.087,18.173 19.592,18.41L19.592,19.505Z" style="fill:white;fill-rule:nonzero;"/>
        </g>
        <g transform="matrix(1.06818,0,0,1.06818,427.528,-204.612)">
            <path d="M0,9.797L-4.68,-6.423L-9.48,9.797L0,9.797ZM0.569,11.987L-10.111,11.987L-11.983,18.321C-12.444,19.88 -12.675,21.045 -12.675,21.814C-12.675,22.426 -12.475,22.964 -12.074,23.427C-11.675,23.891 -10.81,24.192 -9.48,24.33L-9.48,25.425L-18.168,25.425L-18.168,24.33C-17.015,24.034 -16.269,23.649 -15.93,23.175C-15.238,22.228 -14.472,20.304 -13.631,17.403L-3.927,-15.628L-3.215,-15.628L6.388,17.759C7.161,20.443 7.863,22.184 8.493,22.983C9.124,23.782 10.002,24.231 11.128,24.33L11.128,25.425L0.244,25.425L0.244,24.33C1.343,24.251 2.085,23.985 2.472,23.53C2.858,23.077 3.052,22.524 3.052,21.873C3.052,21.005 2.78,19.634 2.237,17.759L0.569,11.987Z" style="fill:white;fill-rule:nonzero;"/>
        </g>
        <g transform="matrix(1.06818,0,0,1.06818,459.666,-177.454)">
            <path d="M0,-40.136L0.305,-30.724L-0.469,-30.724C-0.618,-32.381 -0.821,-33.565 -1.079,-34.276C-1.499,-35.42 -2.059,-36.263 -2.757,-36.806C-3.456,-37.349 -4.374,-37.62 -5.514,-37.62L-9.399,-37.62L-9.399,-6.956C-9.399,-4.489 -9.217,-2.95 -8.851,-2.339C-8.335,-1.51 -7.541,-1.095 -6.47,-1.095L-5.514,-1.095L-5.514,0L-17.212,0L-17.212,-1.095L-16.235,-1.095C-15.069,-1.095 -14.241,-1.608 -13.753,-2.635C-13.455,-3.266 -13.306,-4.706 -13.306,-6.956L-13.306,-37.62L-16.622,-37.62C-17.91,-37.62 -18.826,-37.482 -19.368,-37.206C-20.073,-36.831 -20.677,-36.111 -21.179,-35.045C-21.681,-33.98 -21.979,-32.539 -22.074,-30.724L-22.847,-30.724L-22.521,-40.136L0,-40.136Z" style="fill:white;fill-rule:nonzero;"/>
        </g>
        <g transform="matrix(1.06818,0,0,1.06818,473.765,-219.157)">
            <path d="M0,37.946L0,39.041L-11.82,39.041L-11.82,37.946L-10.844,37.946C-9.704,37.946 -8.877,37.463 -8.361,36.496C-8.036,35.864 -7.873,34.345 -7.873,31.938L-7.873,6.009C-7.873,3.977 -7.962,2.635 -8.138,1.984C-8.273,1.49 -8.552,1.066 -8.972,0.711C-9.568,0.238 -10.192,0.001 -10.844,0.001L-11.82,0.001L-11.82,-1.095L0,-1.095L0,0.001L-0.997,0.001C-2.123,0.001 -2.943,0.484 -3.458,1.451C-3.798,2.083 -3.967,3.602 -3.967,6.009L-3.967,31.938C-3.967,33.97 -3.879,35.312 -3.702,35.963C-3.567,36.456 -3.282,36.881 -2.848,37.236C-2.265,37.709 -1.647,37.946 -0.997,37.946L0,37.946Z" style="fill:white;fill-rule:nonzero;"/>
        </g>
        <g transform="matrix(1.06818,0,0,1.06818,505.382,-176.474)">
            <path d="M0,-41.053L0,-39.958C-0.977,-39.701 -1.717,-39.248 -2.218,-38.596C-2.938,-37.629 -3.574,-36.15 -4.13,-34.157L-13.753,0L-14.506,0L-24.841,-34.601C-25.37,-36.377 -25.743,-37.462 -25.96,-37.857C-26.299,-38.468 -26.716,-38.947 -27.211,-39.292C-27.706,-39.637 -28.374,-39.859 -29.215,-39.958L-29.215,-41.053L-17.944,-41.053L-17.944,-39.958C-19.219,-39.781 -20.047,-39.465 -20.426,-39.011C-20.806,-38.557 -20.996,-37.975 -20.996,-37.264C-20.996,-36.278 -20.684,-34.739 -20.06,-32.647L-13.041,-9.116L-6.531,-32.351C-5.894,-34.64 -5.575,-36.229 -5.575,-37.116C-5.575,-37.689 -5.771,-38.236 -6.165,-38.759C-6.559,-39.282 -7.223,-39.652 -8.158,-39.869C-8.227,-39.888 -8.342,-39.918 -8.504,-39.958L-8.504,-41.053L0,-41.053Z" style="fill:white;fill-rule:nonzero;"/>
        </g>
        <g transform="matrix(1.06818,0,0,1.06818,518.874,-204.612)">
            <path d="M0,9.797L-4.68,-6.423L-9.48,9.797L0,9.797ZM0.569,11.987L-10.111,11.987L-11.983,18.321C-12.444,19.88 -12.675,21.045 -12.675,21.814C-12.675,22.426 -12.475,22.964 -12.074,23.427C-11.675,23.891 -10.81,24.192 -9.48,24.33L-9.48,25.425L-18.168,25.425L-18.168,24.33C-17.015,24.034 -16.269,23.649 -15.93,23.175C-15.238,22.228 -14.472,20.304 -13.631,17.403L-3.927,-15.628L-3.215,-15.628L6.388,17.759C7.161,20.443 7.863,22.184 8.493,22.983C9.124,23.782 10.002,24.231 11.128,24.33L11.128,25.425L0.244,25.425L0.244,24.33C1.343,24.251 2.085,23.985 2.472,23.53C2.858,23.077 3.052,22.524 3.052,21.873C3.052,21.005 2.78,19.634 2.237,17.759L0.569,11.987Z" style="fill:white;fill-rule:nonzero;"/>
        </g>
        <g transform="matrix(1.06818,0,0,1.06818,546.964,-217.227)">
            <path d="M0,34.334C1.723,34.887 3.167,35.163 4.334,35.163C7.48,35.163 10.091,33.555 12.166,30.338C14.241,27.122 15.279,22.761 15.279,17.256C15.279,11.711 14.241,7.34 12.166,4.144C10.091,0.947 7.426,-0.651 4.171,-0.651C2.95,-0.651 1.56,-0.365 0,0.207L0,34.334ZM-7.873,37.235L-7.873,36.14L-6.835,36.14C-5.669,36.14 -4.842,35.597 -4.354,34.512C-4.056,33.861 -3.906,32.4 -3.906,30.131L-3.906,4.203C-3.906,1.697 -4.096,0.128 -4.476,-0.503C-5.004,-1.372 -5.791,-1.806 -6.835,-1.806L-7.873,-1.806L-7.873,-2.901L3.357,-2.901C7.48,-2.901 10.616,-2.22 12.767,-0.859C14.916,0.503 16.646,2.772 17.954,5.949C19.263,9.126 19.917,12.796 19.917,16.96C19.917,22.544 18.751,27.211 16.418,30.96C13.801,35.144 9.813,37.235 4.456,37.235L-7.873,37.235Z" style="fill:white;fill-rule:nonzero;"/>
        </g>
        <g transform="matrix(1.06818,0,0,1.06818,578.168,-179.793)">
            <path d="M0,-35.756L0,-19.891L6.062,-19.891C7.636,-19.891 8.688,-20.236 9.216,-20.927C9.921,-21.834 10.314,-23.433 10.396,-25.722L11.149,-25.722L11.149,-11.751L10.396,-11.751C10.206,-13.705 10.017,-14.958 9.826,-15.51C9.582,-16.201 9.183,-16.743 8.626,-17.138C8.07,-17.533 7.216,-17.73 6.062,-17.73L0,-17.73L0,-4.5C0,-2.724 0.055,-1.643 0.163,-1.258C0.271,-0.874 0.461,-0.568 0.732,-0.341C1.004,-0.114 1.52,-0.001 2.279,-0.001L6.958,-0.001C8.518,-0.001 9.65,-0.158 10.355,-0.474C11.061,-0.79 11.739,-1.411 12.39,-2.339C13.23,-3.562 14.092,-5.407 14.974,-7.874L15.787,-7.874L13.407,2.19L-7.853,2.19L-7.853,1.095L-6.876,1.095C-6.225,1.095 -5.608,0.868 -5.024,0.414C-4.591,0.098 -4.296,-0.375 -4.14,-1.007C-3.984,-1.638 -3.906,-2.931 -3.906,-4.884L-3.906,-30.961C-3.906,-33.506 -4.082,-35.075 -4.435,-35.667C-4.923,-36.456 -5.736,-36.851 -6.876,-36.851L-7.853,-36.851L-7.853,-37.946L13.407,-37.946L13.712,-29.155L12.919,-29.155C12.634,-31.266 12.318,-32.717 11.973,-33.506C11.627,-34.295 11.115,-34.898 10.437,-35.312C9.895,-35.608 8.938,-35.756 7.568,-35.756L0,-35.756Z" style="fill:white;fill-rule:nonzero;"/>
        </g>
        <g transform="matrix(-1.41371,0,0,1.55886,594.127,-63.9915)">
            <rect x="0.001" y="0" width="576.217" height="3.056" style="fill:rgb(255,196,36);"/>
        </g>
        <g transform="matrix(0.677557,0,0,0.655242,-513.615,-509.17)">
            <path d="M433.602,461.766L433.602,414.719L525.22,414.719C547.974,414.719 567.456,422.825 583.667,439.036C599.878,455.246 607.983,474.68 607.983,497.336C607.983,514.914 602.978,530.71 592.969,544.724C582.959,558.738 570.19,568.674 554.663,574.534L606.983,650.852L549.268,650.852L489.917,564.426L489.917,532.786L525.22,532.786C534.985,532.786 543.335,529.319 550.268,522.385C557.202,515.452 560.669,507.102 560.669,497.336C560.669,487.668 557.202,479.343 550.268,472.361C543.335,465.378 534.985,461.887 525.22,461.887L489.917,461.887L433.602,461.766Z" style="fill:white;fill-rule:nonzero;"/>
        </g>
        <g transform="matrix(0.677557,0,0,0.655242,-639.085,-330.667)">
            <path d="M802.046,237.471C802.046,237.471 800.659,251.151 795.608,261.95C789.56,274.881 780.046,284.639 780.046,284.639L822.798,284.639L822.798,378.121L870.112,378.121L870.112,142.989L822.798,142.989L822.798,237.471L802.046,237.471Z" style="fill:url(#_Linear1);fill-rule:nonzero;"/>
        </g>
        <g transform="matrix(0.605346,0,0,1.10429,-487.812,-660.418)">
            <rect x="443.075" y="415.336" width="52.449" height="107.692" style="fill:url(#_Linear2);"/>
        </g>
    </g>
    <defs>
        <linearGradient id="_Linear1" x1="0" y1="0" x2="1" y2="0" gradientUnits="userSpaceOnUse" gradientTransform="matrix(57.3442,-1.92922,3.56189,114.308,779.128,260.551)"><stop offset="0" style="stop-color:rgb(255,196,36);stop-opacity:0"/><stop offset="1" style="stop-color:rgb(255,196,36);stop-opacity:1"/></linearGradient>
        <linearGradient id="_Linear2" x1="0" y1="0" x2="1" y2="0" gradientUnits="userSpaceOnUse" gradientTransform="matrix(4.79168e-15,-41.4841,306.434,9.94701e-15,494.956,457.239)"><stop offset="0" style="stop-color:rgb(255,196,36);stop-opacity:1"/><stop offset="1" style="stop-color:rgb(255,196,36);stop-opacity:0"/></linearGradient>
    </defs>
</svg>
