<?xml version="1.0" encoding="UTF-8" standalone="no"?>
<!DOCTYPE svg PUBLIC "-//W3C//DTD SVG 1.1//EN" "http://www.w3.org/Graphics/SVG/1.1/DTD/svg11.dtd">
<svg width="100%" height="100%" viewBox="0 0 695 232" version="1.1" xmlns="http://www.w3.org/2000/svg" xmlns:xlink="http://www.w3.org/1999/xlink" xml:space="preserve" xmlns:serif="http://www.serif.com/" style="fill-rule:evenodd;clip-rule:evenodd;stroke-linejoin:round;stroke-miterlimit:2;">
    <g transform="matrix(0.996746,0,0,0.996746,-56.4597,-165.035)">
        <g transform="matrix(1,0,0,1,105.91,166.905)">
            <path d="M0,230.095C16.044,225.316 34.139,195.957 34.139,195.957C60.086,155.332 6.145,101.733 6.145,101.733C-31.514,61.194 -13.996,0 -13.996,0C-13.996,0 -55.817,64.181 -8.706,118.462C-8.706,118.462 49.416,177.095 0.256,229.84L0,230.095Z" style="fill:rgb(238,52,35);fill-rule:nonzero;"/>
        </g>
        <g transform="matrix(1,0,0,1,99.7651,229.549)">
            <path d="M0,156.954C37.05,120.911 -13.314,65.036 -13.314,65.036C-36.87,36.871 -35.846,0 -35.846,0C-35.846,0 -54.265,33.813 -18.691,83.982C-18.691,83.982 7.682,122.389 0.256,156.186L0,156.954Z" style="fill:rgb(181,17,26);fill-rule:nonzero;"/>
        </g>
        <g transform="matrix(1,0,0,1,155.209,174.757)">
            <path d="M0,160.112C29.632,121.42 -21.646,72.374 -21.646,72.374C-49.981,41.99 -44.178,0 -44.178,0L-44.178,0.016C-44.178,0.016 -68.588,39.088 -32.4,83.127C-32.4,83.127 13.745,132.62 0.097,159.825" style="fill:rgb(181,17,26);fill-rule:nonzero;"/>
        </g>
        <g transform="matrix(-1,0,0,1,933.963,41.646)">
            <rect x="182.558" y="282.52" width="568.847" height="2.764" style="fill:white;"/>
        </g>
        <g transform="matrix(1,0,0,1,199.822,306.122)">
            <path d="M0,-58.774L0,-57.16C-2.338,-56.933 -3.854,-56.375 -4.548,-55.482C-5.242,-54.591 -5.588,-52.545 -5.588,-49.346L-5.588,-21.53C-5.588,-16.972 -5.153,-13.419 -4.28,-10.871C-2.656,-6.228 0.426,-3.906 4.964,-3.906C9.938,-3.906 13.278,-6.285 14.982,-11.041C15.934,-13.702 16.41,-17.807 16.41,-23.357L16.41,-45.991C16.41,-50.719 16.013,-53.685 15.22,-54.888C14.427,-56.091 12.921,-56.848 10.702,-57.16L10.702,-58.774L24.792,-58.774L24.792,-57.16C22.434,-56.792 20.893,-55.978 20.17,-54.718C19.446,-53.458 19.085,-50.549 19.085,-45.991L19.085,-23.357C19.085,-17.354 18.44,-12.669 17.153,-9.3C14.774,-3.1 10.256,0 3.597,0C-2.983,0 -7.461,-3.057 -9.839,-9.172C-11.128,-12.456 -11.771,-16.788 -11.771,-22.167L-11.771,-49.346C-11.771,-52.517 -12.114,-54.548 -12.797,-55.44C-13.481,-56.332 -14.973,-56.905 -17.271,-57.16L-17.271,-58.774L0,-58.774Z" style="fill:white;fill-rule:nonzero;"/>
        </g>
        <g transform="matrix(1,0,0,1,576.37,272.27)">
            <path d="M0,12.449L-6.255,-9.023L-12.538,12.449L0,12.449ZM-23.505,32.474L-23.505,31.027C-22.102,30.801 -21.049,30.047 -20.348,28.764C-19.646,27.482 -18.442,23.973 -16.738,18.238L-5.369,-20.025L-4.282,-20.025L9.316,24.176C10.222,27.104 10.946,28.914 11.488,29.608C12.029,30.302 12.94,30.775 14.22,31.027L14.22,32.474L0.341,32.474L0.341,31.027C1.936,30.825 2.964,30.579 3.426,30.288C3.887,29.998 4.118,29.284 4.118,28.148C4.118,27.769 4.028,27.1 3.852,26.14C3.674,25.18 3.425,24.17 3.105,23.109L0.92,15.609L-13.463,15.609C-14.881,20.71 -15.727,23.823 -16.002,24.947C-16.277,26.071 -16.415,26.961 -16.415,27.617C-16.415,28.931 -16.043,29.841 -15.297,30.345C-14.836,30.649 -13.967,30.876 -12.69,31.027L-12.69,32.474L-23.505,32.474Z" style="fill:white;fill-rule:nonzero;"/>
        </g>
        <g transform="matrix(1,0,0,1,595.083,254.607)">
            <path d="M0,48.691C2.132,48.363 3.464,47.801 3.997,47.005C4.53,46.21 4.796,44.132 4.796,40.773L4.796,7.004C4.796,4.213 4.499,2.398 3.903,1.561C3.309,0.723 2.007,0.203 0,0L0,-1.447L15.136,-1.447L15.136,0C13.14,0.203 11.841,0.723 11.24,1.561C10.64,2.398 10.34,4.213 10.34,7.004L10.34,22.194L26.915,22.194L26.915,7.004C26.915,4.213 26.622,2.398 26.035,1.561C25.449,0.723 24.144,0.203 22.118,0L22.118,-1.447L37.255,-1.447L37.255,0C35.247,0.203 33.946,0.723 33.351,1.561C32.755,2.398 32.458,4.213 32.458,7.004L32.458,41.686C32.458,44.514 32.755,46.325 33.351,47.12C33.946,47.915 35.247,48.439 37.255,48.691L37.255,50.138L22.118,50.138L22.118,48.691C24.268,48.388 25.604,47.833 26.129,47.024C26.652,46.216 26.915,44.132 26.915,40.773L26.915,25.621L10.34,25.621L10.34,41.686C10.34,44.514 10.64,46.331 11.24,47.139C11.841,47.946 13.14,48.464 15.136,48.691L15.136,50.138L0,50.138L0,48.691Z" style="fill:white;fill-rule:nonzero;"/>
        </g>
        <g transform="matrix(1,0,0,1,637.506,254.607)">
            <path d="M0,48.691C2.256,48.361 3.704,47.633 4.344,46.504C4.983,45.376 5.303,42.757 5.303,38.649L5.303,6.999C5.303,4.184 4.992,2.352 4.37,1.502C3.748,0.652 2.336,0.152 0.133,0L0.133,-1.447L10.893,-1.447L23.427,37.389L35.655,-1.447L46.502,-1.447L46.502,0C44.477,0.203 43.171,0.729 42.585,1.578C41.998,2.428 41.705,4.235 41.705,6.999L41.705,41.653C41.705,44.495 41.998,46.314 42.585,47.113C43.171,47.912 44.477,48.438 46.502,48.691L46.502,50.138L31.232,50.138L31.232,48.691C33.435,48.438 34.808,47.873 35.35,46.998C35.892,46.124 36.162,44.038 36.162,40.74L36.162,5.743L22.185,50.138L21.438,50.138L7.701,7.569L7.701,38.649C7.701,42.909 8.137,45.686 9.007,46.979C9.575,47.816 10.846,48.387 12.817,48.691L12.817,50.138L0,50.138L0,48.691Z" style="fill:white;fill-rule:nonzero;"/>
        </g>
        <g transform="matrix(1,0,0,1,688.665,268.768)">
            <path d="M0,20.291C0.923,23.793 2.005,26.586 3.246,28.666C5.411,32.296 8.098,34.111 11.309,34.111C13.047,34.111 14.551,33.324 15.819,31.75C17.088,30.177 17.722,27.981 17.722,25.164C17.722,22.626 17.083,20.418 15.808,18.54C14.974,17.347 13.218,15.558 10.541,13.172L5.886,9.022C4.484,7.754 3.366,6.472 2.532,5.177C0.986,2.716 0.213,-0 0.213,-2.97C0.213,-6.903 1.128,-10.177 2.958,-12.792C4.788,-15.405 7.213,-16.713 10.233,-16.713C11.477,-16.713 12.974,-16.275 14.724,-15.399C16.474,-14.524 17.473,-14.086 17.722,-14.086C18.396,-14.086 18.863,-14.314 19.121,-14.772C19.378,-15.228 19.578,-15.876 19.721,-16.713L20.84,-16.713L22.039,-0.114L20.733,-0.114C19.845,-5.114 18.419,-8.604 16.456,-10.584C14.492,-12.563 12.552,-13.553 10.633,-13.553C9.141,-13.553 7.839,-12.925 6.729,-11.668C5.618,-10.412 5.063,-8.667 5.063,-6.434C5.063,-4.429 5.489,-2.716 6.34,-1.294C7.19,0.152 8.513,1.663 10.306,3.236L15.099,7.461C18.099,10.102 20.214,12.525 21.445,14.733C22.658,16.967 23.265,19.606 23.265,22.651C23.265,26.738 22.186,30.151 20.026,32.893C17.868,35.633 15.11,37.004 11.752,37.004C10.064,37.004 8.301,36.547 6.463,35.633C4.624,34.72 3.571,34.263 3.305,34.263C2.665,34.263 2.234,34.542 2.012,35.101C1.79,35.659 1.644,36.255 1.572,36.89L0.373,36.89L-1.252,20.291L0,20.291Z" style="fill:white;fill-rule:nonzero;"/>
        </g>
        <g transform="matrix(1,0,0,1,737.082,272.27)">
            <path d="M0,12.449L-6.255,-9.023L-12.538,12.449L0,12.449ZM-23.505,32.474L-23.505,31.027C-22.102,30.801 -21.049,30.047 -20.348,28.764C-19.646,27.482 -18.442,23.973 -16.738,18.238L-5.369,-20.025L-4.282,-20.025L9.316,24.176C10.222,27.104 10.946,28.914 11.488,29.608C12.029,30.302 12.94,30.775 14.22,31.027L14.22,32.474L0.341,32.474L0.341,31.027C1.936,30.825 2.964,30.579 3.426,30.288C3.887,29.998 4.118,29.284 4.118,28.148C4.118,27.769 4.028,27.1 3.852,26.14C3.674,25.18 3.425,24.17 3.105,23.109L0.92,15.609L-13.463,15.609C-14.881,20.71 -15.727,23.823 -16.002,24.947C-16.277,26.071 -16.415,26.961 -16.415,27.617C-16.415,28.931 -16.043,29.841 -15.297,30.345C-14.836,30.649 -13.967,30.876 -12.69,31.027L-12.69,32.474L-23.505,32.474Z" style="fill:white;fill-rule:nonzero;"/>
        </g>
        <g transform="matrix(1,0,0,1,226.67,260.836)">
            <path d="M0,42.637C2.013,42.343 3.306,41.693 3.876,40.685C4.447,39.678 4.732,37.342 4.732,33.675L4.732,3.021L4.067,1.901C3.354,0.701 2.747,-0.04 2.248,-0.322C1.748,-0.606 0.999,-0.77 0,-0.815L0,-2.106L8.311,-2.106L27.111,31.184L27.111,8.062C27.111,4.259 26.714,1.784 25.922,0.636C25.399,-0.106 24.241,-0.59 22.45,-0.815L22.45,-2.106L33.889,-2.106L33.889,-0.815C32.034,-0.544 30.797,0.102 30.179,1.121C29.561,2.14 29.251,4.473 29.251,8.12L29.251,44.743L28.419,44.743L6.873,6.591L6.873,33.677C6.873,37.478 7.261,39.956 8.038,41.11C8.545,41.857 9.679,42.366 11.439,42.637L11.439,43.928L0,43.928L0,42.637Z" style="fill:white;fill-rule:nonzero;"/>
        </g>
        <g transform="matrix(1,0,0,1,265.003,260.021)">
            <path d="M0,43.452C1.982,43.249 3.266,42.827 3.853,42.185C4.439,41.543 4.732,39.882 4.732,37.201L4.732,6.251C4.732,3.692 4.439,2.044 3.853,1.308C3.266,0.572 1.982,0.136 0,0L0,-1.291L14.412,-1.291L14.412,0C12.43,0.136 11.146,0.572 10.559,1.308C9.972,2.044 9.679,3.692 9.679,6.251L9.679,37.201C9.679,39.882 9.972,41.543 10.559,42.185C11.146,42.827 12.43,43.249 14.412,43.452L14.412,44.743L0,44.743L0,43.452Z" style="fill:white;fill-rule:nonzero;"/>
        </g>
        <g transform="matrix(1,0,0,1,297.348,305.58)">
            <path d="M0,-46.85L0,-45.661C-1.218,-45.638 -2.048,-45.523 -2.491,-45.316C-3.268,-44.948 -3.656,-44.2 -3.656,-43.073C-3.656,-42.497 -3.517,-41.692 -3.24,-40.657C-2.962,-39.621 -2.446,-37.903 -1.69,-35.502L5.934,-11.28L12.854,-37.501C13.159,-38.661 13.391,-39.642 13.55,-40.448C13.708,-41.253 13.788,-41.91 13.788,-42.416C13.788,-43.774 13.384,-44.694 12.577,-45.178C12.102,-45.454 11.318,-45.615 10.226,-45.661L10.226,-46.85L20.189,-46.85L20.189,-45.661C19.158,-45.457 18.397,-45.06 17.906,-44.472C17.161,-43.588 16.423,-41.81 15.694,-39.137L4.908,0L4.176,0L-7.861,-38.244C-8.876,-41.487 -9.689,-43.506 -10.299,-44.3C-10.91,-45.094 -11.801,-45.547 -12.975,-45.661L-12.975,-46.85L0,-46.85Z" style="fill:white;fill-rule:nonzero;"/>
        </g>
        <g transform="matrix(1,0,0,1,321.758,260.021)">
            <path d="M0,43.452C1.792,43.182 2.953,42.726 3.484,42.083C4.015,41.442 4.281,39.814 4.281,37.201L4.281,6.251C4.281,3.783 4.019,2.169 3.496,1.41C2.973,0.651 1.808,0.181 0,0L0,-1.291L25.875,-1.291L26.041,8.663L24.804,8.663C24.392,5.597 23.773,3.613 22.949,2.711C22.125,1.81 20.286,1.359 17.432,1.359L10.801,1.359C10.086,1.359 9.645,1.523 9.478,1.851C9.311,2.18 9.228,2.797 9.228,3.703L9.228,19.229L16.742,19.229C18.819,19.229 20.143,18.79 20.714,17.911C21.285,17.032 21.744,15.252 22.093,12.57L23.235,12.57L23.235,28.639L22.093,28.639C21.728,25.945 21.261,24.161 20.69,23.289C20.119,22.417 18.803,21.981 16.742,21.981L9.228,21.981L9.228,39.205C9.228,40.587 9.533,41.403 10.144,41.651C10.755,41.901 12.585,42.025 15.634,42.025C18.937,42.025 21.374,41.51 22.946,40.479C24.518,39.449 25.93,36.952 27.183,32.988L28.538,32.988L26.326,44.743L0,44.743L0,43.452Z" style="fill:white;fill-rule:nonzero;"/>
        </g>
        <g transform="matrix(1,0,0,1,370.59,284.142)">
            <path d="M0,-4.79C2.584,-6.305 3.876,-9.153 3.876,-13.335C3.876,-17.359 2.719,-20.106 0.404,-21.575C-0.832,-22.366 -2.473,-22.762 -4.518,-22.762C-5.897,-22.762 -6.742,-22.621 -7.051,-22.338C-7.36,-22.056 -7.515,-21.394 -7.515,-20.354L-7.515,-3.228C-4.011,-3.408 -1.506,-3.929 0,-4.79M-16.647,19.331C-14.776,19.083 -13.611,18.564 -13.151,17.776C-12.691,16.987 -12.461,15.15 -12.461,12.265L-12.461,-17.87C-12.461,-20.316 -12.719,-21.918 -13.234,-22.677C-13.75,-23.436 -14.887,-23.917 -16.647,-24.121L-16.647,-25.412L-3.163,-25.412C-0.356,-25.412 1.982,-24.903 3.853,-23.885C7.404,-21.963 9.18,-18.424 9.18,-13.267C9.18,-9.807 8.391,-7.149 6.813,-5.294C5.236,-3.44 3.092,-2.219 0.381,-1.631L10.417,16.028C11.035,17.107 11.653,17.894 12.271,18.388C12.89,18.882 13.683,19.196 14.649,19.331L14.649,20.622L6.806,20.622L-5.377,-0.815L-7.515,-0.645L-7.515,13.068C-7.515,15.641 -7.241,17.272 -6.694,17.96C-6.147,18.648 -4.955,19.106 -3.115,19.331L-3.115,20.622L-16.647,20.622L-16.647,19.331Z" style="fill:white;fill-rule:nonzero;"/>
        </g>
        <g transform="matrix(1,0,0,1,389.508,272.66)">
            <path d="M0,18.107C0.823,21.232 1.789,23.724 2.897,25.581C4.829,28.82 7.227,30.44 10.092,30.44C11.643,30.44 12.985,29.737 14.117,28.333C15.249,26.929 15.815,24.97 15.815,22.456C15.815,20.191 15.245,18.221 14.106,16.544C13.362,15.48 11.795,13.883 9.407,11.754L5.252,8.051C4.002,6.919 3.004,5.774 2.259,4.619C0.88,2.423 0.19,-0.001 0.19,-2.651C0.19,-6.162 1.007,-9.083 2.64,-11.416C4.272,-13.748 6.437,-14.915 9.132,-14.915C10.242,-14.915 11.578,-14.525 13.139,-13.743C14.701,-12.962 15.592,-12.571 15.815,-12.571C16.417,-12.571 16.833,-12.775 17.063,-13.183C17.292,-13.59 17.471,-14.168 17.598,-14.915L18.597,-14.915L19.667,-0.103L18.502,-0.103C17.709,-4.564 16.437,-7.679 14.685,-9.446C12.933,-11.212 11.201,-12.096 9.489,-12.096C8.157,-12.096 6.996,-11.535 6.005,-10.414C5.014,-9.293 4.519,-7.735 4.519,-5.743C4.519,-3.953 4.898,-2.424 5.658,-1.156C6.417,0.135 7.597,1.482 9.197,2.887L13.474,6.658C16.151,9.014 18.039,11.176 19.137,13.147C20.22,15.14 20.761,17.495 20.761,20.213C20.761,23.86 19.798,26.906 17.872,29.352C15.946,31.798 13.484,33.022 10.488,33.022C8.981,33.022 7.408,32.614 5.767,31.798C4.126,30.983 3.187,30.575 2.949,30.575C2.378,30.575 1.994,30.825 1.795,31.323C1.597,31.821 1.466,32.353 1.403,32.92L0.333,32.92L-1.118,18.107L0,18.107Z" style="fill:white;fill-rule:nonzero;"/>
        </g>
        <g transform="matrix(1,0,0,1,415.216,260.021)">
            <path d="M0,43.452C1.981,43.249 3.266,42.827 3.853,42.185C4.438,41.543 4.732,39.882 4.732,37.201L4.732,6.251C4.732,3.692 4.438,2.044 3.853,1.308C3.266,0.572 1.981,0.136 0,0L0,-1.291L14.411,-1.291L14.411,0C12.43,0.136 11.145,0.572 10.559,1.308C9.972,2.044 9.679,3.692 9.679,6.251L9.679,37.201C9.679,39.882 9.972,41.543 10.559,42.185C11.145,42.827 12.43,43.249 14.411,43.452L14.411,44.743L0,44.743L0,43.452Z" style="fill:white;fill-rule:nonzero;"/>
        </g>
        <g transform="matrix(1,0,0,1,445.141,261.856)">
            <path d="M0,39.782C0.389,40.145 1.192,40.326 2.414,40.326C6.219,40.326 9.35,39.249 11.808,37.096C15.581,33.786 17.468,28.131 17.468,20.129C17.468,12.989 15.913,7.616 12.807,4.012C10.143,0.929 6.615,-0.612 2.224,-0.612C1.13,-0.612 0.389,-0.442 0,-0.102C-0.389,0.238 -0.583,0.986 -0.583,2.142L-0.583,37.538C-0.583,38.671 -0.389,39.419 0,39.782M-9.81,41.617C-8.034,41.347 -6.877,40.891 -6.338,40.248C-5.799,39.607 -5.529,37.979 -5.529,35.366L-5.529,4.416C-5.529,1.88 -5.791,0.249 -6.314,-0.476C-6.837,-1.201 -8.003,-1.654 -9.81,-1.835L-9.81,-3.126L3.317,-3.126C7.741,-3.126 11.482,-2.084 14.542,-0.001C20.06,3.737 22.818,10.418 22.818,20.044C22.818,23.509 22.322,26.804 21.332,29.93C20.341,33.055 18.847,35.695 16.85,37.846C15.581,39.205 14.265,40.236 12.901,40.937C10.412,42.251 7.353,42.908 3.722,42.908L-9.81,42.908L-9.81,41.617Z" style="fill:white;fill-rule:nonzero;"/>
        </g>
        <g transform="matrix(1,0,0,1,486.541,275.785)">
            <path d="M0,11.109L-5.581,-8.052L-11.188,11.109L0,11.109ZM-20.976,28.979L-20.976,27.688C-19.724,27.486 -18.784,26.813 -18.157,25.669C-17.531,24.525 -16.458,21.393 -14.938,16.275L-4.791,-17.87L-3.82,-17.87L8.314,21.574C9.123,24.187 9.769,25.802 10.252,26.422C10.735,27.041 11.549,27.463 12.689,27.688L12.689,28.979L0.305,28.979L0.305,27.688C1.728,27.507 2.646,27.288 3.058,27.029C3.469,26.77 3.675,26.133 3.675,25.118C3.675,24.781 3.596,24.184 3.438,23.327C3.278,22.47 3.057,21.568 2.771,20.622L0.822,13.929L-12.014,13.929C-13.278,18.481 -14.034,21.259 -14.28,22.262C-14.525,23.265 -14.648,24.059 -14.648,24.645C-14.648,25.817 -14.315,26.629 -13.65,27.08C-13.239,27.351 -12.464,27.553 -11.324,27.688L-11.324,28.979L-20.976,28.979Z" style="fill:white;fill-rule:nonzero;"/>
        </g>
        <g transform="matrix(1,0,0,1,513.294,261.856)">
            <path d="M0,39.782C0.389,40.145 1.192,40.326 2.414,40.326C6.219,40.326 9.35,39.249 11.808,37.096C15.581,33.786 17.468,28.131 17.468,20.129C17.468,12.989 15.913,7.616 12.807,4.012C10.143,0.929 6.615,-0.612 2.224,-0.612C1.13,-0.612 0.389,-0.442 0,-0.102C-0.389,0.238 -0.583,0.986 -0.583,2.142L-0.583,37.538C-0.583,38.671 -0.389,39.419 0,39.782M-9.81,41.617C-8.034,41.347 -6.877,40.891 -6.338,40.248C-5.799,39.607 -5.529,37.979 -5.529,35.366L-5.529,4.416C-5.529,1.88 -5.791,0.249 -6.314,-0.476C-6.837,-1.201 -8.003,-1.654 -9.81,-1.835L-9.81,-3.126L3.317,-3.126C7.741,-3.126 11.482,-2.084 14.542,-0.001C20.06,3.737 22.818,10.418 22.818,20.044C22.818,23.509 22.322,26.804 21.332,29.93C20.341,33.055 18.847,35.695 16.85,37.846C15.581,39.205 14.265,40.236 12.901,40.937C10.412,42.251 7.353,42.908 3.722,42.908L-9.81,42.908L-9.81,41.617Z" style="fill:white;fill-rule:nonzero;"/>
        </g>
        <g transform="matrix(1,0,0,1,330.84,368.438)">
            <path d="M0,-22.059L3.164,-22.059L0.609,-8.854C0.5,-8.329 0.418,-7.83 0.364,-7.361C0.31,-6.89 0.282,-6.477 0.282,-6.121C0.282,-5.169 0.572,-4.429 1.151,-3.9C1.73,-3.37 2.545,-3.105 3.595,-3.105C4.952,-3.105 5.974,-3.521 6.663,-4.353C7.351,-5.184 7.927,-6.829 8.393,-9.285L10.859,-22.059L14.052,-22.059L11.498,-9.002C11.478,-8.873 11.438,-8.665 11.378,-8.378C10.903,-5.903 10.324,-4.105 9.641,-2.986C9.056,-1.996 8.234,-1.25 7.175,-0.75C6.115,-0.25 4.837,0 3.342,0C1.431,0 -0.084,-0.502 -1.203,-1.508C-2.322,-2.513 -2.881,-3.868 -2.881,-5.571C-2.881,-6.056 -2.852,-6.59 -2.792,-7.175C-2.733,-7.759 -2.644,-8.373 -2.525,-9.017L0,-22.059Z" style="fill:white;fill-rule:nonzero;"/>
        </g>
        <g transform="matrix(1,0,0,1,344.733,356.299)">
            <path d="M0,6.203L2.652,6.203C2.652,6.266 2.647,6.348 2.64,6.446C2.632,6.545 2.628,6.617 2.628,6.665C2.628,7.651 2.849,8.395 3.291,8.896C3.733,9.397 4.392,9.648 5.268,9.648C6.089,9.648 6.767,9.384 7.304,8.855C7.841,8.326 8.109,7.659 8.109,6.854C8.109,6.286 7.977,5.807 7.712,5.416C7.448,5.025 6.866,4.561 5.966,4.025C5.824,3.938 5.607,3.811 5.315,3.646C4.203,3.022 3.386,2.446 2.865,1.918C2.486,1.523 2.202,1.081 2.012,0.592C1.823,0.102 1.729,-0.434 1.729,-1.018C1.729,-2.415 2.218,-3.573 3.196,-4.492C4.175,-5.412 5.414,-5.872 6.914,-5.872C8.358,-5.872 9.494,-5.475 10.323,-4.682C11.151,-3.889 11.566,-2.806 11.566,-1.433C11.566,-1.29 11.564,-1.182 11.56,-1.107C11.556,-1.031 11.55,-0.963 11.542,-0.9L8.973,-0.9C8.973,-0.94 8.977,-0.996 8.985,-1.071C8.993,-1.147 8.997,-1.203 8.997,-1.243C8.997,-1.961 8.796,-2.531 8.393,-2.953C7.991,-3.376 7.45,-3.587 6.771,-3.587C6.116,-3.587 5.556,-3.357 5.09,-2.895C4.625,-2.433 4.392,-1.882 4.392,-1.243C4.392,-0.343 5.375,0.679 7.339,1.823C7.742,2.059 8.054,2.245 8.275,2.38C9.08,2.861 9.705,3.482 10.151,4.244C10.597,5.006 10.82,5.828 10.82,6.712C10.82,8.227 10.287,9.5 9.222,10.53C8.156,11.559 6.831,12.075 5.244,12.075C3.555,12.075 2.259,11.605 1.355,10.666C0.452,9.727 0,8.378 0,6.617L0,6.203Z" style="fill:white;fill-rule:nonzero;"/>
        </g>
        <g transform="matrix(1,0,0,1,360.915,368.35)">
            <path d="M0,-17.58L2.521,-17.58L0.485,-7.056C0.398,-6.638 0.333,-6.241 0.29,-5.866C0.247,-5.491 0.225,-5.162 0.225,-4.878C0.225,-4.12 0.456,-3.53 0.917,-3.108C1.379,-2.685 2.028,-2.475 2.865,-2.475C3.946,-2.475 4.761,-2.806 5.309,-3.469C5.857,-4.132 6.317,-5.442 6.688,-7.399L8.653,-17.58L11.199,-17.58L9.163,-7.175C9.146,-7.071 9.115,-6.906 9.068,-6.677C8.689,-4.704 8.227,-3.271 7.683,-2.38C7.217,-1.591 6.562,-0.997 5.718,-0.599C4.873,-0.2 3.855,0 2.664,0C1.14,0 -0.067,-0.401 -0.959,-1.202C-1.851,-2.003 -2.297,-3.082 -2.297,-4.439C-2.297,-4.826 -2.273,-5.253 -2.226,-5.719C-2.178,-6.184 -2.107,-6.673 -2.013,-7.186L0,-17.58Z" style="fill:white;fill-rule:nonzero;"/>
        </g>
        <g transform="matrix(1,0,0,1,373.236,356.299)">
            <path d="M0,6.203L2.652,6.203C2.652,6.266 2.647,6.348 2.64,6.446C2.632,6.545 2.628,6.617 2.628,6.665C2.628,7.651 2.849,8.395 3.291,8.896C3.733,9.397 4.392,9.648 5.268,9.648C6.089,9.648 6.767,9.384 7.304,8.855C7.841,8.326 8.109,7.659 8.109,6.854C8.109,6.286 7.977,5.807 7.712,5.416C7.448,5.025 6.866,4.561 5.966,4.025C5.824,3.938 5.607,3.811 5.315,3.646C4.203,3.022 3.386,2.446 2.865,1.918C2.486,1.523 2.202,1.081 2.012,0.592C1.823,0.102 1.729,-0.434 1.729,-1.018C1.729,-2.415 2.218,-3.573 3.196,-4.492C4.175,-5.412 5.414,-5.872 6.914,-5.872C8.358,-5.872 9.494,-5.475 10.323,-4.682C11.151,-3.889 11.566,-2.806 11.566,-1.433C11.566,-1.29 11.564,-1.182 11.56,-1.107C11.556,-1.031 11.55,-0.963 11.542,-0.9L8.973,-0.9C8.973,-0.94 8.977,-0.996 8.985,-1.071C8.993,-1.147 8.997,-1.203 8.997,-1.243C8.997,-1.961 8.796,-2.531 8.393,-2.953C7.991,-3.376 7.45,-3.587 6.771,-3.587C6.116,-3.587 5.556,-3.357 5.09,-2.895C4.625,-2.433 4.392,-1.882 4.392,-1.243C4.392,-0.343 5.375,0.679 7.339,1.823C7.742,2.059 8.054,2.245 8.275,2.38C9.08,2.861 9.705,3.482 10.151,4.244C10.597,5.006 10.82,5.828 10.82,6.712C10.82,8.227 10.287,9.5 9.222,10.53C8.156,11.559 6.831,12.075 5.244,12.075C3.555,12.075 2.259,11.605 1.355,10.666C0.452,9.727 0,8.378 0,6.617L0,6.203Z" style="fill:white;fill-rule:nonzero;"/>
        </g>
        <g transform="matrix(1,0,0,1,385.112,365.248)">
            <path d="M0,5.765L0.284,4.286C0.623,4.206 0.886,4.042 1.071,3.794C1.256,3.545 1.373,3.201 1.42,2.758L0.58,2.758L1.113,0L3.492,0L2.9,2.971C2.703,3.997 2.393,4.705 1.971,5.096C1.548,5.487 0.892,5.709 0,5.765" style="fill:white;fill-rule:nonzero;"/>
        </g>
        <g transform="matrix(1,0,0,1,398.963,353.316)">
            <path d="M0,7.783L3.327,7.783C3.327,7.862 3.322,7.964 3.313,8.088C3.303,8.212 3.298,8.303 3.298,8.362C3.298,9.6 3.575,10.534 4.13,11.162C4.685,11.791 5.511,12.105 6.61,12.105C7.641,12.105 8.492,11.774 9.165,11.11C9.839,10.447 10.176,9.61 10.176,8.6C10.176,7.887 10.01,7.285 9.678,6.795C9.346,6.304 8.616,5.723 7.487,5.05C7.309,4.941 7.036,4.782 6.67,4.574C5.273,3.792 4.249,3.069 3.595,2.406C3.12,1.911 2.763,1.356 2.525,0.742C2.288,0.128 2.169,-0.545 2.169,-1.279C2.169,-3.031 2.783,-4.485 4.011,-5.638C5.238,-6.791 6.794,-7.368 8.675,-7.368C10.487,-7.368 11.913,-6.871 12.953,-5.875C13.993,-4.88 14.513,-3.522 14.513,-1.798C14.513,-1.62 14.511,-1.484 14.506,-1.39C14.5,-1.295 14.493,-1.209 14.483,-1.13L11.26,-1.13C11.26,-1.179 11.265,-1.251 11.274,-1.345C11.284,-1.439 11.289,-1.511 11.289,-1.561C11.289,-2.461 11.037,-3.177 10.532,-3.707C10.027,-4.237 9.349,-4.501 8.497,-4.501C7.675,-4.501 6.972,-4.212 6.388,-3.633C5.803,-3.053 5.511,-2.363 5.511,-1.561C5.511,-0.432 6.744,0.851 9.21,2.287C9.715,2.584 10.106,2.817 10.384,2.985C11.394,3.589 12.179,4.369 12.738,5.325C13.297,6.28 13.577,7.312 13.577,8.422C13.577,10.323 12.908,11.92 11.572,13.213C10.235,14.505 8.571,15.151 6.581,15.151C4.461,15.151 2.835,14.561 1.701,13.383C0.567,12.205 0,10.512 0,8.303L0,7.783Z" style="fill:white;fill-rule:nonzero;"/>
        </g>
        <g transform="matrix(1,0,0,1,428.751,355.696)">
            <path d="M0,7.386L3.078,7.386C2.249,9.068 1.085,10.365 -0.414,11.281C-1.914,12.197 -3.618,12.655 -5.528,12.655C-6.586,12.655 -7.559,12.508 -8.446,12.216C-9.334,11.924 -10.129,11.494 -10.832,10.926C-11.778,10.168 -12.505,9.252 -13.01,8.179C-13.515,7.106 -13.768,5.953 -13.768,4.723C-13.768,3.373 -13.521,2.082 -13.027,0.852C-12.534,-0.38 -11.822,-1.48 -10.891,-2.451C-10.022,-3.359 -9.005,-4.055 -7.837,-4.541C-6.669,-5.026 -5.43,-5.269 -4.119,-5.269C-2.091,-5.269 -0.349,-4.734 1.107,-3.665C2.563,-2.595 3.536,-1.134 4.025,0.721L1.208,0.721C0.758,-0.447 0.062,-1.344 -0.882,-1.972C-1.825,-2.599 -2.936,-2.913 -4.214,-2.913C-5.122,-2.913 -5.979,-2.737 -6.783,-2.386C-7.588,-2.035 -8.318,-1.524 -8.973,-0.853C-9.62,-0.167 -10.129,0.645 -10.5,1.579C-10.871,2.515 -11.057,3.464 -11.057,4.427C-11.057,6.139 -10.542,7.542 -9.512,8.635C-8.481,9.728 -7.17,10.275 -5.575,10.275C-4.415,10.275 -3.344,10.02 -2.361,9.511C-1.379,9.002 -0.592,8.294 0,7.386" style="fill:white;fill-rule:nonzero;"/>
        </g>
        <g transform="matrix(0.190187,-0.981748,-0.981748,-0.190187,445.235,363.904)">
            <path d="M-6.088,9.855L11.468,9.855L11.948,7.381L-5.608,7.381L-6.088,9.855Z" style="fill:white;fill-rule:nonzero;"/>
        </g>
        <g transform="matrix(1,0,0,1,442.48,350.771)">
            <path d="M0,17.236L3.339,0L12.24,0L11.755,2.426L5.375,2.426L4.451,7.34L10.809,7.34L10.37,9.695L4.001,9.695L3.007,14.761L9.353,14.761L8.891,17.236L0,17.236Z" style="fill:white;fill-rule:nonzero;"/>
        </g>
        <g transform="matrix(1,0,0,1,455.96,350.771)">
            <path d="M0,17.236L3.374,0L6.842,0L11.708,13.815L14.407,0L16.929,0L13.578,17.236L10.275,17.236L5.291,3.007L2.521,17.236L0,17.236Z" style="fill:white;fill-rule:nonzero;"/>
        </g>
        <g transform="matrix(1,0,0,1,476.828,350.771)">
            <path d="M0,17.236L2.889,2.38L-0.899,2.38L-0.438,0L9.506,0L9.044,2.38L5.41,2.38L2.521,17.236L0,17.236Z" style="fill:white;fill-rule:nonzero;"/>
        </g>
        <g transform="matrix(0.190187,-0.981748,-0.981748,-0.190187,498.228,363.904)">
            <path d="M-6.088,9.855L11.468,9.855L11.948,7.381L-5.608,7.381L-6.088,9.855Z" style="fill:white;fill-rule:nonzero;"/>
        </g>
        <g transform="matrix(1,0,0,1,505.635,358.122)">
            <path d="M0,2.533L-1.278,-4.712L-5.113,2.533L0,2.533ZM-11.803,9.885L-2.344,-7.352L0.533,-7.352L4.025,9.885L1.409,9.885L0.438,4.936L-6.393,4.936L-9.067,9.885L-11.803,9.885Z" style="fill:white;fill-rule:nonzero;"/>
        </g>
        <g transform="matrix(1,0,0,1,511.163,365.248)">
            <path d="M0,5.765L0.284,4.286C0.624,4.206 0.886,4.042 1.071,3.794C1.257,3.545 1.373,3.201 1.421,2.758L0.58,2.758L1.113,0L3.492,0L2.9,2.971C2.703,3.997 2.394,4.705 1.972,5.096C1.549,5.487 0.892,5.709 0,5.765" style="fill:white;fill-rule:nonzero;"/>
        </g>
        <g transform="matrix(1,0,0,1,525.967,368.007)">
            <path d="M0,-21.628L3.193,-21.628L6.016,-3.535L15.478,-21.628L18.924,-21.628L7.338,0L3.535,0L0,-21.628Z" style="fill:white;fill-rule:nonzero;"/>
        </g>
        <g transform="matrix(0.190187,-0.981748,-0.981748,-0.190187,553.798,363.904)">
            <path d="M-6.088,9.855L11.468,9.855L11.948,7.381L-5.608,7.381L-6.088,9.855Z" style="fill:white;fill-rule:nonzero;"/>
        </g>
        <g transform="matrix(1,0,0,1,550.437,350.771)">
            <path d="M0,17.236L3.339,0L7.707,0C9.727,0 11.29,0.446 12.395,1.338C13.499,2.229 14.052,3.488 14.052,5.114C14.052,6.692 13.545,7.991 12.53,9.008C11.517,10.027 10.134,10.619 8.382,10.784L11.897,17.236L9.092,17.236L4.475,8.772L4.913,8.772C7.383,8.748 8.945,8.547 9.601,8.168C10.146,7.852 10.571,7.436 10.879,6.919C11.188,6.402 11.341,5.84 11.341,5.232C11.341,4.325 11.031,3.618 10.412,3.113C9.792,2.608 8.922,2.355 7.802,2.355C7.485,2.355 7.122,2.363 6.712,2.38C6.302,2.395 5.864,2.419 5.398,2.45L2.521,17.236L0,17.236Z" style="fill:white;fill-rule:nonzero;"/>
        </g>
        <g transform="matrix(1,0,0,1,567.975,350.771)">
            <path d="M0,17.236L2.889,2.38L-0.899,2.38L-0.438,0L9.506,0L9.044,2.38L5.41,2.38L2.521,17.236L0,17.236Z" style="fill:white;fill-rule:nonzero;"/>
        </g>
        <g transform="matrix(1,0,0,1,580.776,368.35)">
            <path d="M0,-17.58L2.521,-17.58L0.485,-7.056C0.398,-6.638 0.334,-6.241 0.29,-5.866C0.247,-5.491 0.226,-5.162 0.226,-4.878C0.226,-4.12 0.456,-3.53 0.918,-3.108C1.38,-2.685 2.028,-2.475 2.865,-2.475C3.946,-2.475 4.761,-2.806 5.31,-3.469C5.858,-4.132 6.317,-5.442 6.688,-7.399L8.654,-17.58L11.199,-17.58L9.163,-7.175C9.147,-7.071 9.115,-6.906 9.068,-6.677C8.689,-4.704 8.228,-3.271 7.684,-2.38C7.218,-1.591 6.562,-0.997 5.718,-0.599C4.873,-0.2 3.855,0 2.664,0C1.141,0 -0.066,-0.401 -0.959,-1.202C-1.851,-2.003 -2.296,-3.082 -2.296,-4.439C-2.296,-4.826 -2.272,-5.253 -2.226,-5.719C-2.178,-6.184 -2.106,-6.673 -2.013,-7.186L0,-17.58Z" style="fill:white;fill-rule:nonzero;"/>
        </g>
        <g transform="matrix(1,0,0,1,593.702,356.299)">
            <path d="M0,6.203L2.652,6.203C2.652,6.266 2.648,6.348 2.641,6.446C2.633,6.545 2.629,6.617 2.629,6.665C2.629,7.651 2.85,8.395 3.291,8.896C3.733,9.397 4.393,9.648 5.269,9.648C6.089,9.648 6.768,9.384 7.305,8.855C7.841,8.326 8.109,7.659 8.109,6.854C8.109,6.286 7.978,5.807 7.713,5.416C7.448,5.025 6.866,4.561 5.967,4.025C5.825,3.938 5.607,3.811 5.315,3.646C4.203,3.022 3.386,2.446 2.865,1.918C2.486,1.523 2.202,1.081 2.013,0.592C1.823,0.102 1.729,-0.434 1.729,-1.018C1.729,-2.415 2.218,-3.573 3.196,-4.492C4.175,-5.412 5.414,-5.872 6.914,-5.872C8.358,-5.872 9.494,-5.475 10.323,-4.682C11.152,-3.889 11.566,-2.806 11.566,-1.433C11.566,-1.29 11.564,-1.182 11.561,-1.107C11.557,-1.031 11.551,-0.963 11.543,-0.9L8.974,-0.9C8.974,-0.94 8.978,-0.996 8.985,-1.071C8.993,-1.147 8.997,-1.203 8.997,-1.243C8.997,-1.961 8.796,-2.531 8.394,-2.953C7.991,-3.376 7.45,-3.587 6.771,-3.587C6.116,-3.587 5.557,-3.357 5.091,-2.895C4.625,-2.433 4.393,-1.882 4.393,-1.243C4.393,-0.343 5.375,0.679 7.34,1.823C7.742,2.059 8.055,2.245 8.275,2.38C9.08,2.861 9.706,3.482 10.151,4.244C10.598,5.006 10.82,5.828 10.82,6.712C10.82,8.227 10.288,9.5 9.223,10.53C8.157,11.559 6.831,12.075 5.245,12.075C3.556,12.075 2.26,11.605 1.355,10.666C0.452,9.727 0,8.378 0,6.617L0,6.203Z" style="fill:white;fill-rule:nonzero;"/>
        </g>
    </g>
</svg>
